<svg version="1.1" id="email" xmlns="http://www.w3.org/2000/svg" xmlns:xlink="http://www.w3.org/1999/xlink" x="0px"
	 y="0px" width="36px" height="18px" viewBox="0 0 36 18" style="enable-background:new 0 0 36 18;" xml:space="preserve" fill="#fff">
<g>
	<path d="M1.513,16.342c-0.036-3.421,0.09-6.824,0.36-10.317c-0.144,0.018-0.324,0.072-0.486,0.09c0-0.324,0.036-0.63,0.162-0.882
		c0.126-0.234,0.342-0.414,0.684-0.486c0.937-0.216,1.909-0.378,2.863-0.504c0.036-0.882,0.108-2.035,0.18-2.935h1.243
		c-0.09,0.918-0.18,1.891-0.216,2.827c0.594-0.09,1.261-0.054,1.801,0.144c0.54,0.198,0.882,0.504,1.116,0.9
		c0.216,0.36,0.342,0.792,0.378,1.278c0.288,3.169,0.307,6.141,0.271,9.273C6.986,15.586,4.177,15.855,1.513,16.342z M4.97,10.508
		c-0.486,0.055-1.585,0.234-2.179,0.343c-0.072,1.351-0.09,2.827-0.036,4.159c0.594-0.072,1.765-0.217,2.341-0.27
		C5.005,13.354,4.97,11.931,4.97,10.508z M3.115,5.701C3.007,7.033,2.899,8.348,2.863,9.68c0.684-0.108,1.386-0.216,2.089-0.27
		c0-1.351,0.054-2.719,0.09-4.051C4.411,5.449,3.673,5.575,3.115,5.701z M8.625,10.346c-0.81,0-1.638,0.019-2.467,0.072
		c-0.018,1.404,0.072,2.863,0.18,4.231c0.774-0.036,1.584-0.071,2.341-0.054C8.697,13.119,8.679,11.751,8.625,10.346z M8.318,6.133
		c-0.054-0.45-0.45-0.792-0.882-0.864c-0.378-0.054-0.774-0.054-1.17-0.018c-0.054,1.314-0.09,2.701-0.108,4.033
		C6.932,9.23,7.778,9.194,8.588,9.23C8.535,8.204,8.462,7.177,8.318,6.133z M16.349,13.533c-0.27,0.378-0.684,0.666-1.188,0.756
		c-0.468,0.09-1.134,0.108-1.566-0.018c-0.162-0.055-0.27-0.18-0.359-0.342c-0.127-0.289-0.145-0.666-0.145-0.937
		c0.559,0.09,1.206,0.144,1.837,0.09c0.359-0.036,0.647-0.45,0.647-0.774c0.019-2.016-0.899-3.763-2.017-5.347
		c0.774-1.117,1.423-2.323,1.873-3.565c0.126-0.36-0.108-0.864-0.504-0.9c-0.576-0.054-1.657,0.072-2.251,0.216
		c-0.36,5.132-0.648,9.2-0.432,14.08h-1.243c-0.144-4.663,0.055-9.092,0.414-13.738c-0.288,0.054-0.63,0.144-0.918,0.27
		c-0.018-0.288-0.036-0.576,0.054-0.828c0.072-0.216,0.217-0.414,0.469-0.522c0.846-0.36,3.15-0.738,4.141-0.558
		c0.612,0.108,1.062,0.396,1.297,0.811c0.216,0.378,0.288,0.864,0.107,1.404c-0.323,1.026-1.08,2.575-1.638,3.421
		c1.098,1.548,1.998,3.367,1.836,5.384C16.727,12.85,16.583,13.227,16.349,13.533z"/>
	<path d="M24.5,3.63c0.252,0.306,0.504,0.63,0.666,0.954c0.145,0.27,0.019,0.522-0.18,0.738c-0.162,0.18-0.378,0.306-0.559,0.396
		c-0.288-0.702-0.702-1.35-1.206-1.944c-0.576,0.054-1.135,0.162-1.675,0.288c-0.521,0.666-0.972,1.422-1.387,2.125
		c-0.27-0.198-0.449-0.36-0.576-0.522c-0.18-0.252-0.216-0.468-0.054-0.756c0.522-0.954,1.873-2.629,2.611-3.493
		c0.323,0.126,0.81,0.342,1.098,0.468c-0.216,0.252-0.521,0.612-0.756,0.9c1.477-0.27,3.079-0.378,4.627-0.432
		c0.019,0.27,0.019,0.864,0,1.17C26.246,3.504,25.346,3.522,24.5,3.63z M23.563,8.24c-0.036,0.378-0.072,0.81-0.072,1.224
		c0.271-0.126,0.522-0.27,0.757-0.432c0.45,0.594,1.26,1.927,1.44,2.485c0.09,0.288,0.036,0.522-0.108,0.702
		c-0.144,0.217-0.396,0.36-0.666,0.522c-0.414-1.009-0.864-2.034-1.423-2.989c-0.071,2.143-0.071,4.951-0.018,6.932
		c-0.324,0-0.864,0.019-1.261,0.037c0-1.909,0.036-4.502,0.072-6.104c-0.774,1.351-1.387,2.755-1.98,4.159
		c-0.324-0.18-0.576-0.378-0.702-0.594c-0.145-0.217-0.162-0.432-0.054-0.685c0.485-1.17,2.25-4.123,2.862-5.113
		c-1.008,0.09-1.998,0.324-2.953,0.558c0-0.198,0-0.504,0.091-0.756c0.054-0.216,0.18-0.378,0.396-0.45
		c0.631-0.18,1.909-0.378,2.521-0.45c0.036-0.522,0.091-1.134,0.145-1.692c0.45-0.036,0.792-0.054,1.152-0.054
		c-0.036,0.378-0.108,1.188-0.145,1.603c0.703-0.036,1.531-0.108,2.233-0.108v1.062C25.112,8.114,24.32,8.149,23.563,8.24z
		 M26.265,16.774c0.036-3.007,0.18-6.229,0.558-9.201c-0.18,0.036-0.396,0.108-0.576,0.162c0-0.306-0.018-0.558,0.036-0.756
		c0.072-0.216,0.198-0.396,0.505-0.504c1.404-0.504,3.853-0.792,5.473-0.648c0.433,0.036,0.774,0.198,1.026,0.468
		c0.343,0.342,0.541,0.811,0.595,1.314c0.306,2.773,0.414,5.888,0.396,8.732C31.63,16.288,28.821,16.307,26.265,16.774z
		 M32.062,3.468c0.162,0.198,0.486,0.594,0.63,0.864c0.126,0.27,0.09,0.468-0.036,0.648c-0.126,0.198-0.36,0.342-0.612,0.504
		c-0.378-0.648-0.756-1.314-1.278-1.909c-0.72,0.054-1.404,0.144-2.07,0.306c-0.252,0.432-0.666,1.188-0.918,1.639
		c-0.198-0.09-0.433-0.234-0.576-0.432c-0.181-0.216-0.271-0.468-0.162-0.756c0.576-1.062,1.278-2.035,2.053-3.007
		c0.378,0.144,0.72,0.306,1.062,0.45c-0.233,0.288-0.432,0.576-0.63,0.864c1.656-0.27,3.511-0.306,5.222-0.306
		c0,0.216,0.036,0.918,0.036,1.116C33.988,3.432,32.854,3.45,32.062,3.468z M33.017,12.975c-1.765-0.054-3.673,0.037-5.438,0.324
		c-0.055,0.703-0.072,1.459-0.055,2.197c1.783-0.198,3.602-0.324,5.492-0.288C33.034,14.632,33.034,13.678,33.017,12.975z
		 M32.908,9.752c-1.746-0.018-3.493,0.126-5.167,0.396c-0.055,0.504-0.091,1.566-0.108,2.088c1.692-0.252,3.583-0.342,5.365-0.324
		C32.998,11.211,32.963,10.454,32.908,9.752z M32.62,7.375c-0.09-0.288-0.396-0.468-0.684-0.486
		c-1.369-0.072-2.684,0.09-3.926,0.378c-0.054,0.486-0.162,1.404-0.18,1.836c1.603-0.252,3.295-0.396,4.987-0.414
		C32.801,8.24,32.765,7.79,32.62,7.375z"/>
</g>
</svg>
