<svg version="1.1" id="jianshu" xmlns="http://www.w3.org/2000/svg" xmlns:xlink="http://www.w3.org/1999/xlink" x="0px"
	 y="0px" width="36px" height="18px" viewBox="0 0 36 18" style="enable-background:new 0 0 36 18;" xml:space="preserve" fill="#fff">
<g>
	<path d="M6.662,2.45c0.252,0.36,0.54,0.846,0.756,1.225c0.145,0.252,0.09,0.486-0.036,0.666c-0.18,0.252-0.522,0.45-0.774,0.576
		C6.266,4.089,5.816,3.278,5.222,2.558C4.699,2.594,3.997,2.685,3.529,2.792C3.097,3.477,2.665,4.179,2.305,4.899
		c-0.27-0.09-0.522-0.252-0.684-0.486C1.44,4.161,1.368,3.854,1.548,3.549C2.143,2.45,3.097,1.154,3.835,0.235l1.243,0.433
		c-0.216,0.27-0.504,0.648-0.63,0.846c1.548-0.144,3.097-0.27,4.664-0.252v1.135C8.3,2.36,7.472,2.378,6.662,2.45z M3.115,15.738
		H1.818c-0.036-2.845,0.018-5.762,0.306-8.606h1.278C3.151,10.03,3.007,12.821,3.115,15.738z M5.762,7.186
		c-0.144,0.252-0.414,0.468-0.612,0.63C4.627,6.844,3.817,5.925,2.989,5.097l0.955-0.72c0.72,0.63,1.404,1.35,1.873,2.106
		C5.978,6.735,5.906,6.97,5.762,7.186z M5.023,14.46c-0.018-1.71,0.126-3.403,0.342-5.06C5.167,9.437,4.843,9.526,4.627,9.599
		C4.646,9.4,4.664,9.076,4.753,8.842c0.072-0.216,0.198-0.396,0.468-0.468c1.8-0.522,3.709-0.738,5.689-0.702
		c0.612,0,1.062,0.252,1.387,0.612c0.396,0.45,0.594,1.098,0.648,1.729c0.126,1.224,0.18,2.7,0.161,3.925
		C10.353,13.938,7.634,14.046,5.023,14.46z M11.758,11.291c-1.747-0.018-3.655,0.197-5.384,0.45
		c-0.018,0.396-0.036,1.134-0.036,1.476c1.801-0.233,3.637-0.323,5.491-0.377C11.829,12.317,11.794,11.812,11.758,11.291z
		 M11.523,9.364c-0.145-0.324-0.396-0.576-0.846-0.594C9.291,8.734,7.94,8.914,6.644,9.13c-0.072,0.432-0.162,1.206-0.198,1.584
		c1.71-0.27,3.439-0.45,5.24-0.504C11.668,9.922,11.632,9.634,11.523,9.364z M15.736,15.252c-0.27,0.234-0.611,0.396-1.008,0.432
		c-0.433,0.055-0.9,0.019-1.314-0.053c-0.252-0.037-0.378-0.217-0.45-0.451c-0.09-0.27-0.09-0.594-0.108-0.811
		c0.522,0.072,1.135,0.127,1.639,0.091c0.307-0.019,0.522-0.252,0.54-0.558c0.145-1.891,0.126-5.15-0.107-6.717
		c-0.072-0.54-0.595-1.116-1.152-1.152c-2.269-0.144-4.808-0.036-7.041,0.378C6.752,6.159,6.77,5.871,6.842,5.637
		c0.09-0.216,0.234-0.396,0.522-0.45c1.566-0.306,4.627-0.396,6.176-0.324c0.792,0.036,1.44,0.27,1.908,0.72
		c0.379,0.36,0.648,0.864,0.738,1.566c0.198,1.729,0.288,5.239,0.091,7.005C16.223,14.622,16.024,15,15.736,15.252z M13.973,2.414
		c0.197,0.288,0.449,0.702,0.594,0.99c0.144,0.288,0.09,0.541-0.072,0.738c-0.162,0.216-0.45,0.378-0.738,0.486
		c-0.324-0.738-0.684-1.458-1.188-2.125c-0.612,0.054-1.242,0.108-1.836,0.234c-0.415,0.558-0.774,1.17-1.099,1.765
		c-0.306-0.09-0.594-0.36-0.738-0.63c-0.126-0.234-0.144-0.45,0.018-0.72c0.576-0.936,1.404-2.053,2.179-3.043l1.134,0.541
		c-0.198,0.252-0.45,0.558-0.648,0.864c1.639-0.198,3.439-0.252,5.186-0.216v1.116C15.862,2.36,14.854,2.36,13.973,2.414z"/>
	<path d="M33.232,13.775c-0.288,0.379-0.702,0.631-1.26,0.703c-0.505,0.071-1.261,0.071-1.801,0.035
		c-0.343-0.018-0.559-0.216-0.685-0.468c-0.144-0.253-0.198-0.576-0.234-0.864c0.702,0.072,1.693,0.107,2.467,0.035
		c0.324-0.018,0.631-0.359,0.685-0.684c0.145-0.811,0.18-1.729,0.108-2.593c-0.036-0.396-0.379-0.792-0.774-0.882
		c-1.135-0.234-4.016-0.216-5.78-0.162c-0.071,1.836-0.144,4.969-0.162,6.825H24.5c0-2.251,0.054-4.646,0.162-6.789
		c-1.747,0.108-3.637,0.288-5.33,0.504c0.036-0.271,0.055-0.576,0.181-0.829c0.126-0.216,0.306-0.36,0.666-0.396
		c1.134-0.126,3.295-0.324,4.52-0.396c0.054-1.152,0.144-2.611,0.27-3.907c-1.494,0.09-3.15,0.27-4.573,0.468
		c0.036-0.342,0.055-0.685,0.216-0.918c0.126-0.162,0.307-0.27,0.595-0.306c1.008-0.126,2.917-0.288,3.871-0.36
		c0.054-0.612,0.18-1.854,0.27-2.467h1.314c-0.071,0.576-0.197,1.765-0.27,2.376c1.296,0,3.024,0,4.177,0.162
		c0.486,0.072,0.847,0.306,1.062,0.63c0.216,0.288,0.307,0.648,0.288,1.062C31.9,5.439,31.504,6.861,31.18,7.816
		c0.702,0.018,1.333,0.198,1.801,0.558c0.45,0.324,0.738,0.828,0.811,1.53c0.054,0.631,0.036,1.494,0,2.197
		C33.772,12.768,33.593,13.344,33.232,13.775z M30.136,3.945c-1.261-0.108-2.575-0.144-3.835-0.108
		c-0.145,1.26-0.217,2.61-0.271,3.907c0.99-0.018,2.611-0.018,3.781,0c0.396-1.062,0.792-2.34,0.828-3.277
		C30.658,4.197,30.388,3.963,30.136,3.945z M34.043,5.295c-1.026-1.35-2.197-2.701-3.512-3.889L31.54,0.65
		c1.044,0.936,2.034,1.98,2.935,3.007c0.234,0.288,0.234,0.594,0.126,0.9C34.493,4.827,34.259,5.097,34.043,5.295z"/>
</g>
</svg>
