<svg version="1.1" id="&#x56FE;&#x5C42;_1" xmlns="http://www.w3.org/2000/svg" xmlns:xlink="http://www.w3.org/1999/xlink" x="0px"
	 y="0px" width="40px" height="40px" viewBox="0 0 40 40" style="enable-background:new 0 0 40 40;" xml:space="preserve">
<g>
	<path style="fill:#FFFFFF;" d="M23.999,10.726c1.467-0.32,2.627-0.48,3.48-0.48c0.881,0,1.619,0.194,2.221,0.58
		c0.6,0.387,0.898,0.86,0.898,1.42s-0.293,1.014-0.879,1.36c-0.295,0.187-0.688,0.467-1.18,0.84c-0.494,0.374-1.115,0.84-1.861,1.4
		c-1.467,1.147-2.293,1.827-2.479,2.04c-0.215,0.24-0.334,0.64-0.361,1.2c1.066,0.08,2.014,0.494,2.84,1.24
		c0.881,0.746,1.461,1.347,1.74,1.8c0.281,0.454,0.42,0.96,0.42,1.521c0,0.24-0.039,0.467-0.119,0.68
		c-0.08,0.214-0.18,0.453-0.301,0.72c-0.119,0.267-0.254,0.587-0.4,0.96c-0.146,0.374-0.285,0.84-0.42,1.4
		c-0.854,3.359-1.945,5.906-3.279,7.64c-1.307,1.786-2.32,2.681-3.039,2.681c-0.561,0-1.014-0.494-1.361-1.48
		c-0.186-0.48-0.447-1.027-0.779-1.641c-0.334-0.613-0.768-1.293-1.301-2.039l-0.52-0.84c-1.146,1.52-2.273,2.646-3.379,3.379
		c-1.107,0.734-2.021,1.101-2.74,1.101c-0.615,0-1.094-0.36-1.441-1.08c-0.346-0.694-0.519-1.147-0.519-1.36
		c0.026-0.187,0.073-0.273,0.14-0.26c0.066,0.014,0.173,0.061,0.32,0.141c0.146,0.08,0.332,0.18,0.559,0.3s0.5,0.192,0.82,0.22
		c0.586,0,1.32-0.48,2.201-1.439c0.453-0.454,0.945-1.154,1.479-2.101s1.107-2.14,1.721-3.58c-0.027-0.347-0.033-0.72-0.02-1.12
		c0.012-0.4,0.033-0.826,0.059-1.279c-0.693,0.026-1.238-0.041-1.639-0.2c-0.4-0.16-0.68-0.38-0.84-0.66s-0.221-0.626-0.18-1.04
		c0.039-0.413,0.125-0.859,0.26-1.34c0.186-0.667,0.412-1.106,0.68-1.32c0.293-0.213,0.68-0.32,1.16-0.32
		c0.533,0,1.133-0.213,1.799-0.64c0.4-2.4,0.773-3.813,1.121-4.24c0.373-0.453,0.92-0.68,1.639-0.68c0.508,0,1.227,0.294,2.16,0.88
		c1.281-1.2,1.92-1.946,1.92-2.24c0-0.106-0.08-0.16-0.238-0.16c-0.375,0-1.24,0.227-2.602,0.68c-1.334,0.454-2.398,0.96-3.199,1.52
		c-2.268,1.6-4.193,2.833-5.779,3.7c-1.588,0.867-2.795,1.3-3.621,1.3c-0.907,0-1.76-0.413-2.56-1.24
		c-0.774-0.853-1.16-1.346-1.16-1.48c0-0.16,0.026-0.266,0.08-0.32c0.133-0.106,1.073-0.513,2.82-1.22
		c1.746-0.706,4.406-1.646,7.98-2.82c0.666-0.213,1.207-0.406,1.621-0.58c0.412-0.173,0.699-0.313,0.859-0.42
		c0.346-0.187,0.865-0.693,1.561-1.52c0.346-0.4,0.672-0.786,0.979-1.16c0.307-0.373,0.594-0.746,0.861-1.12
		c0.266-0.373,0.486-0.686,0.66-0.94c0.172-0.253,0.305-0.486,0.398-0.7s0.154-0.413,0.182-0.6c0.025-0.187,0.039-0.4,0.039-0.64
		c0-0.24-0.014-0.493-0.039-0.76c-0.027-0.267-0.08-0.52-0.16-0.76c-0.08-0.24-0.195-0.433-0.34-0.58
		c-0.148-0.146-0.342-0.22-0.58-0.22c-0.295,0-0.588,0.107-0.881,0.32c-0.268,0.214-0.734,0.974-1.4,2.28
		c-0.693,1.36-1.08,2.587-1.16,3.68c-0.08,1.147-0.354,1.994-0.82,2.54c-0.467,0.547-0.939,0.82-1.42,0.82
		c-0.453,0-1.014-0.414-1.68-1.24c-0.666-0.826-1-1.933-1-3.32c0-0.24,0.014-0.5,0.041-0.78c0.025-0.28,0.066-0.54,0.119-0.78
		c0.053-0.24,0.121-0.44,0.201-0.6s0.172-0.24,0.279-0.24c0.213,0,0.467,0.147,0.76,0.44c0.16,0.16,0.354,0.28,0.58,0.36
		s0.467,0.107,0.721,0.08c0.252-0.026,0.512-0.1,0.779-0.22c0.266-0.12,0.506-0.326,0.721-0.62c1.76-2.346,3.533-3.52,5.318-3.52
		c0.773-0.026,1.486,0.22,2.141,0.74s1.127,1.147,1.42,1.88c0.293,0.734,0.34,1.494,0.141,2.28c-0.201,0.787-0.754,1.447-1.66,1.98
		C24.759,9.42,24.239,10.033,23.999,10.726z M14.399,24.967c-1.307,1.199-2.459,2.34-3.459,3.42
		c-1.001,1.08-1.728,1.979-2.181,2.699c-0.454,0.693-0.82,1.174-1.1,1.439c-0.28,0.268-0.58,0.4-0.9,0.4
		c-0.293,0-0.547-0.233-0.76-0.699c-0.214-0.467-0.32-1.074-0.32-1.82c0-0.773,0.133-1.467,0.4-2.08
		c0.16-0.32,0.306-0.573,0.44-0.76c0.133-0.187,0.246-0.334,0.34-0.44c0.093-0.106,0.167-0.2,0.22-0.28
		c0.053-0.08,0.08-0.186,0.08-0.32c0-0.079,0.046-0.152,0.14-0.219c0.093-0.066,0.2-0.101,0.32-0.101s0.233,0.047,0.34,0.14
		c0.106,0.094,0.16,0.247,0.16,0.461l-0.08,0.359c0,0.24,0.14,0.359,0.42,0.359c0.28,0,0.66-0.119,1.14-0.359L14.399,24.967z
		 M17.599,24.366c-0.186,0.054-0.346,0.101-0.479,0.14c-0.135,0.04-0.227,0.087-0.281,0.141c-0.08,0.399-0.053,0.906,0.08,1.52
		C17.292,25.713,17.519,25.113,17.599,24.366z M18.079,30.525c0.826,1.601,1.826,2.4,3,2.4c0.373,0,0.68-0.16,0.92-0.479
		c0.24-0.24,0.787-1.56,1.641-3.96c0.826-2.32,1.24-3.84,1.24-4.561c0-0.693-0.107-1.273-0.32-1.74
		c-0.213-0.466-0.494-0.699-0.84-0.699c-0.721,0-1.467,0.787-2.24,2.359C20.759,25.553,19.626,27.779,18.079,30.525z M20.239,17.326
		c0-0.32-0.094-0.52-0.279-0.6c-0.188-0.08-0.395-0.046-0.621,0.1c-0.227,0.147-0.445,0.394-0.66,0.74
		c-0.213,0.347-0.346,0.76-0.398,1.24c0.426-0.266,0.799-0.526,1.119-0.78C19.72,17.773,19.999,17.54,20.239,17.326z M32.36,27.446
		c0.852,0,1.691,0.573,2.52,1.72c0.879,1.12,1.32,2.16,1.32,3.12c0,0.293-0.094,0.566-0.281,0.819
		c-0.186,0.254-0.439,0.381-0.76,0.381c-0.293,0-0.973-0.28-2.039-0.84c-1.041-0.534-2.068-1.44-3.08-2.721
		c-1.014-1.333-1.521-2.08-1.521-2.24c0-0.08,0.055-0.119,0.16-0.119c0.055,0,0.207-0.006,0.461-0.021
		c0.254-0.013,0.553-0.026,0.9-0.04c0.346-0.013,0.727-0.025,1.139-0.039C31.593,27.453,31.985,27.446,32.36,27.446z"/>
</g>
</svg>
