<svg version="1.1" id="weibo" xmlns="http://www.w3.org/2000/svg" xmlns:xlink="http://www.w3.org/1999/xlink" x="0px"
	 y="0px" width="36px" height="18px" viewBox="0 0 36 18" style="enable-background:new 0 0 36 18;" xml:space="preserve" fill="#fff">
<g>
	<path d="M4.333,6.725c-0.18,2.197-0.306,7.203-0.18,9.832H2.875c-0.018-2.143,0.108-5.889,0.234-7.707
		c-0.378,0.648-0.702,1.314-1.008,1.98c-0.162-0.126-0.432-0.324-0.612-0.54c-0.162-0.216-0.252-0.45-0.144-0.684
		c0.81-1.656,1.999-3.457,3.061-5.005c0.216,0.162,0.666,0.468,0.882,0.612C5.035,5.591,4.549,6.365,4.333,6.725z M1.975,6.455
		c-0.144-0.144-0.36-0.378-0.486-0.612C1.344,5.609,1.29,5.339,1.417,5.141C2.281,3.772,3.325,2.53,4.459,1.27
		c0.234,0.18,0.667,0.504,0.882,0.666C4.099,3.394,2.929,4.871,1.975,6.455z M10.996,8.76c-2.143,0-4.124,0.396-6.014,0.972
		C4.981,9.516,5,9.21,5.089,8.958c0.072-0.252,0.216-0.45,0.468-0.522c1.729-0.468,3.583-0.684,5.456-0.792
		C11.013,7.914,10.996,8.508,10.996,8.76z M8.69,15.746c-0.108-1.459-0.09-2.809,0.054-4.195c0.018-0.18-0.108-0.324-0.234-0.307
		c-0.342,0.036-0.738,0.145-1.044,0.307c-0.522,1.674-0.864,3.259-1.297,5.059c-0.18-0.053-0.486-0.162-0.72-0.323
		c-0.198-0.144-0.342-0.306-0.306-0.522c0.234-1.368,0.612-2.611,1.008-3.871c-0.216,0.072-0.45,0.217-0.72,0.288
		c0-0.288,0.018-0.612,0.108-0.9c0.09-0.216,0.216-0.396,0.432-0.504c0.702-0.36,1.692-0.702,2.629-0.81
		c0.36-0.036,0.666,0.09,0.882,0.305c0.27,0.253,0.432,0.667,0.396,1.062c-0.054,0.522-0.108,1.369-0.108,1.945
		c0.324-0.252,0.882-0.685,1.26-0.973c0.126,0.252,0.343,0.666,0.469,0.918C10.725,13.838,9.465,14.99,8.69,15.746z M5.611,7.049
		c0-1.278,0.036-3.529,0.126-4.43c0.27-0.018,0.828-0.036,1.098-0.054C6.728,3.376,6.692,4.96,6.692,5.789
		c0.27-0.036,0.648-0.09,0.936-0.144C7.61,4.636,7.61,2.386,7.682,1.359c0.288-0.018,0.81-0.036,1.116-0.036
		C8.762,2.476,8.708,4.438,8.727,5.5C8.96,5.483,9.5,5.429,9.717,5.411C9.681,4.546,9.609,3.178,9.519,2.368
		c0.306-0.036,0.829-0.09,1.044-0.108c0.108,1.062,0.216,2.989,0.198,4.159C9.338,6.455,7.178,6.653,5.611,7.049z M15.964,5.069
		c-0.45,1.098-1.242,3.169-1.656,4.285c0.774,1.926,1.729,4.447,2.287,6.122c0.107,0.343-0.019,0.595-0.234,0.811
		c-0.198,0.198-0.504,0.378-0.702,0.468c-0.559-1.963-1.188-3.889-1.963-5.762c-0.558,1.566-1.44,4.069-1.927,5.762
		c-0.18-0.072-0.468-0.216-0.684-0.396c-0.216-0.162-0.324-0.359-0.252-0.629c0.306-1.262,1.638-4.826,2.233-6.393
		c-0.234-0.612-0.595-1.458-0.883-2.089c-0.054,0.198-0.144,0.522-0.18,0.738c-0.271-0.09-0.576-0.252-0.756-0.486
		c-0.162-0.198-0.252-0.45-0.162-0.72c0.54-1.837,1.152-3.673,1.891-5.438c0.233,0.072,0.756,0.234,1.026,0.306
		c-0.271,0.684-0.685,1.765-0.955,2.683c1.188-0.234,2.359-0.396,3.638-0.45c0,0.27,0.018,0.882,0.018,1.152
		C16.523,5.033,16.181,5.051,15.964,5.069z M12.633,5.609c-0.09,0.306-0.252,0.864-0.342,1.224c0.198-0.126,0.54-0.324,0.756-0.45
		c0.181,0.378,0.486,1.081,0.612,1.422c0.252-0.648,0.793-1.944,1.08-2.593C14.02,5.267,13.318,5.411,12.633,5.609z"/>
	<path d="M22.404,8.166c-0.07,2.323-0.07,5.167-0.018,8.462h-1.205c0-2.827,0.035-6.067,0.125-8.318
		c-0.701,0.054-1.404,0.216-2.07,0.396c-0.035-0.234-0.072-0.54,0.018-0.792c0.055-0.216,0.199-0.396,0.432-0.468
		c0.506-0.126,1.082-0.216,1.639-0.288c0.02-1.729,0.145-3.997,0.252-5.906c0.396-0.018,0.828,0,1.189,0
		c-0.18,1.873-0.289,3.781-0.361,5.744C23,6.977,23.611,6.941,24.17,6.923c0.035,0.36,0.018,0.792,0.018,1.152
		C23.611,8.076,22.98,8.093,22.404,8.166z M34.686,12.181c-0.613-0.019-1.566-0.019-2.162,0c0.037,1.081,0.02,2.215-0.07,3.043
		c-0.037,0.252-0.145,0.505-0.307,0.72c-0.162,0.234-0.379,0.414-0.613,0.522c-0.521,0.253-1.225,0.306-1.729,0.288
		c-0.305,0-0.504-0.216-0.648-0.468c-0.143-0.271-0.197-0.576-0.215-0.811c0.559,0.091,1.225,0.091,1.836,0.036
		c0.18-0.018,0.432-0.18,0.486-0.378c0.197-0.829,0.145-2.053,0.09-2.935c-1.367,0.018-2.646,0.107-4.033,0.233
		c0.504,0.324,1.189,0.774,1.639,1.188c0.162,0.162,0.162,0.396,0.09,0.612c-0.053,0.216-0.197,0.45-0.342,0.612
		c-0.666-0.631-1.404-1.152-2.143-1.621c0.197-0.27,0.469-0.576,0.666-0.773c-1.025,0.072-2.557,0.252-3.854,0.449
		c-0.035-0.324,0-0.611,0.109-0.81c0.09-0.198,0.27-0.36,0.539-0.396c1.746-0.234,5.24-0.505,7.221-0.559
		c0-0.198-0.037-0.576-0.09-0.811c0.377-0.055,0.773-0.09,1.17-0.126c0.035,0.288,0.072,0.612,0.107,0.9c0.576-0.019,1.639,0,2.27,0
		C34.686,11.371,34.686,11.91,34.686,12.181z M34.234,3.592c-1.566-0.054-3.043,0-4.592,0.09c0.02,0.198,0.037,0.576,0.037,0.774
		c0.684-0.018,1.926-0.09,2.557,0.054c0.521,0.126,0.793,0.288,1.08,0.612c0.307,0.342,0.379,0.774,0.469,1.351
		c0.215,1.26,0.27,2.557,0.252,3.835c-0.307,0.018-0.793,0.054-1.17,0.072c0.018-0.379,0.018-0.919,0-1.333
		c-1.027-0.036-2.053,0.036-3.062,0.126c0,0.342-0.018,1.045-0.035,1.387c-0.307,0.018-0.883,0.054-1.152,0.09
		c0.018-0.342,0.035-0.955,0.055-1.387c-0.955,0.072-2.035,0.144-3.008,0.36c0,0.36-0.018,0.954-0.035,1.261
		c-0.307,0.035-0.828,0.09-1.135,0.144c0.09-1.621,0.197-3.349,0.449-4.916c-0.234,0.036-0.432,0.072-0.684,0.144
		c-0.018-0.324,0.018-0.63,0.162-0.864c0.107-0.18,0.27-0.306,0.521-0.36c0.865-0.162,2.594-0.396,3.656-0.468
		c0-0.198-0.02-0.558-0.055-0.792c-1.584,0.036-3.061,0.271-4.537,0.576c0-0.252,0.055-0.54,0.145-0.756
		c0.09-0.18,0.234-0.378,0.449-0.414c1.207-0.252,2.539-0.342,3.854-0.45c-0.018-0.432-0.055-1.044-0.09-1.44h1.115
		c0.037,0.36,0.072,0.936,0.092,1.332c0.629-0.036,1.35-0.054,1.961-0.072C31.318,2.314,30.977,2.08,30.705,1.9
		c0.234-0.145,0.648-0.45,0.9-0.63c0.324,0.216,0.775,0.522,1.008,0.792c0.109,0.126,0.199,0.36,0.162,0.468h1.477
		C34.252,2.836,34.252,3.286,34.234,3.592z M28.672,7.463c-0.955,0.072-1.963,0.198-2.863,0.324
		c-0.018,0.216-0.055,0.576-0.072,0.792c0.756-0.09,2.053-0.234,2.953-0.324C28.689,8.021,28.689,7.679,28.672,7.463z M28.617,5.573
		c-0.846,0.072-1.711,0.18-2.539,0.306c-0.055,0.234-0.125,0.612-0.145,0.864c0.793-0.09,2.07-0.216,2.738-0.27
		C28.672,6.221,28.652,5.843,28.617,5.573z M32.434,5.717c-0.125-0.144-0.324-0.252-0.521-0.27c-0.703-0.036-1.441,0-2.18,0.054
		c0.037,0.288,0.037,0.685,0.037,0.9c0.9-0.054,1.908-0.09,2.881-0.108C32.633,6.077,32.561,5.879,32.434,5.717z M32.775,7.265
		c-0.99,0-1.998,0.018-2.971,0.108v0.828c0.99-0.09,2-0.108,3.025-0.126C32.83,7.859,32.812,7.517,32.775,7.265z"/>
</g>
</svg>
