<?xml version="1.0" standalone="no"?>
<!DOCTYPE svg PUBLIC "-//W3C//DTD SVG 1.1//EN" "http://www.w3.org/Graphics/SVG/1.1/DTD/svg11.dtd" >
<svg xmlns="http://www.w3.org/2000/svg">
<metadata>
Created by FontForge 20120731 at Tue Oct 20 14:56:10 2015
 By Ads
</metadata>
<defs>
<font id="iconfont" horiz-adv-x="1024" >
  <font-face 
    font-family="iconfont"
    font-weight="500"
    font-stretch="normal"
    units-per-em="1024"
    panose-1="2 0 6 3 0 0 0 0 0 0"
    ascent="812"
    descent="-212"
    x-height="792"
    bbox="-0.142857 -212 1204 812.246"
    underline-thickness="50"
    underline-position="-100"
    unicode-range="U+0078-E637"
  />
<missing-glyph horiz-adv-x="374" 
d="M34 0v682h272v-682h-272zM68 34h204v614h-204v-614z" />
    <glyph glyph-name=".notdef" horiz-adv-x="374" 
d="M34 0v682h272v-682h-272zM68 34h204v614h-204v-614z" />
    <glyph glyph-name=".null" horiz-adv-x="0" 
 />
    <glyph glyph-name="nonmarkingreturn" horiz-adv-x="341" 
 />
    <glyph glyph-name="x" unicode="x" horiz-adv-x="1001" 
d="M281 543q-27 -1 -53 -1h-83q-18 0 -36.5 -6t-32.5 -18.5t-23 -32t-9 -45.5v-76h912v41q0 16 -0.5 30t-0.5 18q0 13 -5 29t-17 29.5t-31.5 22.5t-49.5 9h-133v-97h-438v97zM955 310v-52q0 -23 0.5 -52t0.5 -58t-10.5 -47.5t-26 -30t-33 -16t-31.5 -4.5q-14 -1 -29.5 -0.5
t-29.5 0.5h-32l-45 128h-439l-44 -128h-29h-34q-20 0 -45 1q-25 0 -41 9.5t-25.5 23t-13.5 29.5t-4 30v167h911zM163 247q-12 0 -21 -8.5t-9 -21.5t9 -21.5t21 -8.5q13 0 22 8.5t9 21.5t-9 21.5t-22 8.5zM316 123q-8 -26 -14 -48q-5 -19 -10.5 -37t-7.5 -25t-3 -15t1 -14.5
t9.5 -10.5t21.5 -4h37h67h81h80h64h36q23 0 34 12t2 38q-5 13 -9.5 30.5t-9.5 34.5q-5 19 -11 39h-368zM336 498v228q0 11 2.5 23t10 21.5t20.5 15.5t34 6h188q31 0 51.5 -14.5t20.5 -52.5v-227h-327z" />
    <glyph glyph-name="uniE600" unicode="&#xe600;" horiz-adv-x="1000" 
d="M952 -58l-280 258q70 89 70 202q0 30 -5.5 59t-15.5 55.5t-24.5 51.5t-33 46.5t-40 39.5t-46.5 32.5t-52 24.5t-56.5 15t-59.5 5q-45 0 -88.5 -11.5t-80 -33t-67 -52t-52 -66.5t-33.5 -78.5t-12 -87.5q0 -90 44.5 -165.5t121.5 -120t167 -44.5q122 0 215 78l276 -251z
M105 403q0 124 90 211.5t217 87.5t217 -87.5t90 -211.5q0 -81 -41 -150t-112 -109t-154 -40q-127 0 -217 87.5t-90 211.5z" />
    <glyph glyph-name="uniE601" unicode="&#xe601;" 
d="M387 -12h410v-40h-410v40zM376 -55q0 -37 -26.5 -63.5t-63.5 -26.5t-63 26.5t-26 63.5t26 63t63 26t63.5 -26t26.5 -63zM286 -7q-13 0 -24 -6.5t-17.5 -17.5t-6.5 -24q0 -20 14 -34.5t34 -14.5t34.5 14.5t14.5 34.5q0 31 -29 44q-10 4 -20 4zM979 -55q0 -18 -7 -35
t-19 -29t-29 -19t-35 -7q-37 0 -63 26.5t-26 63.5q0 18 7 34.5t19 28.5t28.5 19t34.5 7q37 0 63.5 -26t26.5 -63zM889 -7q-20 0 -34 -14t-14 -34t14 -34.5t34 -14.5q13 0 24.5 6.5t18 18t6.5 24.5q0 31 -29 44q-10 4 -20 4zM243 778l78 -185h658v-290l-650 -143v-141h-41
v545l-72 173h-139v41h166zM329 202l609 134v216h-609v-350z" />
    <glyph glyph-name="uniE602" unicode="&#xe602;" 
d="M913 438h-808q-19 0 -28 -11q-1 -1 -2 -3l-2 -2l-2 -4q-1 -1 -1.5 -3t-1 -3.5t-0.5 -3.5t-0.5 -4t-0.5 -4q0 -6 1.5 -11t4.5 -9t7 -7.5t8.5 -5.5t9.5 -3t11 -1h30v-201v-26q0 -12 0.5 -23.5t0.5 -20.5v-19v-20q0 -43 17 -73q9 -15 22 -28t31 -25q3 -2 6.5 -4t6.5 -3.5
t7 -2.5q10 -5 17 -7q9 -3 18 -3v-17q0 -7 1 -14v-6v-6q0 -5 1.5 -9t4 -7.5t6.5 -6.5q11 -8 27 -8q4 0 8.5 0.5t9 2t8.5 4.5q13 7 13 22v41h335v-41q0 -14 12 -23.5t28 -9.5q4 1 7.5 1.5t7 1.5t6.5 3l6 4q4 3 7 6.5t4 7.5t1 9v44q7 1 13.5 2.5t13.5 3.5q12 5 26.5 12t29.5 21
q29 27 36.5 50.5t7.5 47.5v320h32q5 0 9.5 1.5t8 3.5t6.5 6q5 5 7 11.5t2 14.5q0 38 -37 38zM250 19l-7 -11q-10 -8 -21 -8q-4 0 -8 0.5t-6.5 1.5t-5 2.5t-4 3.5t-3 3.5t-2.5 3t-1.5 2.5l-0.5 1v1v315q0 1 0.5 3t2 6t4.5 7.5t8.5 6t12.5 2.5q26 0 31 -25v-315zM560 9h-80v72
h80v-72zM922 530q-6 9 -17 18.5t-29 20.5q-3 2 -6.5 4t-6.5 3l-6 4q-3 1 -5.5 2.5t-4.5 2.5q-11 5 -18 7q-8 3 -12 2q-7 27 -19 53q-11 22 -29 46q-17 23 -43 41q-25 17 -53 27q-13 6 -27.5 10t-28.5 6.5t-28 4t-28 2.5q-28 2 -52 2q-21 0 -41.5 -1.5t-41.5 -4.5
q-12 -1 -24 -3.5t-24.5 -5.5t-24.5 -7q-19 -5 -36 -13.5t-31 -19.5q-8 -6 -15 -13t-13.5 -14.5t-11.5 -15.5q-16 -23 -26 -44q-12 -24 -19 -49q-9 -2 -20 -6q-9 -4 -21 -10q-7 -3 -13.5 -6.5t-13.5 -8.5q-15 -11 -24 -20q-4 -4 -7.5 -8t-6.5 -8q-2 -2 -4.5 -8t-6 -13.5
t-6 -15.5t-2.5 -13h862q-2 31 -16 52zM663 617q-10 1 -20.5 2t-23.5 1.5t-26 1.5q-40 3 -84 3q-42 0 -81 -3q-24 -1 -70 -5q-37 -3 -69 -6q5 14 12 30q7 12 17.5 28t28.5 30q15 13 42 20q14 4 27 7t27 5q10 1 21 2.5t22 2.5t23 1q10 0 19.5 -0.5t19.5 -1.5t20.5 -2.5
t21.5 -2.5q41 -6 76 -27q9 -6 16.5 -13t13.5 -14q12 -15 19 -30q9 -17 14 -35q-15 2 -31.5 3.5t-34.5 2.5z" />
    <glyph glyph-name="uniE603" unicode="&#xe603;" 
d="M134 -84q-1 -3 -1.5 -9.5t0.5 -22t4 -27.5t13 -22t25 -11q73 -4 107 28v2q0 3 -0.5 6t-0.5 6v7q0 3 1 5t3 2h451q2 0 2.5 -6.5t-0.5 -12.5t1 -8q15 -18 43 -24t56 -5q13 0 23.5 5.5t14.5 11.5l5 5q6 95 12 174t11 109q8 50 22 71q7 10 19 26.5t18.5 25.5t14 21.5t12 24
t5.5 23.5q1 5 1 11v8q0 21 -7 38q-6 19 -18 32.5t-25 21t-30.5 12.5t-31.5 6.5t-32 2.5h-14q-6 0 -12 -0.5t-12 -0.5h-9q-4 0 -6.5 1.5t-3.5 3.5q-1 3 2 7t9.5 8.5t15 9t18 9t19.5 8.5t19 7t15.5 5.5t11.5 4.5l4 1q5 34 -5 73q-8 29 -26.5 57t-45.5 47q-33 24 -80.5 40
t-94 23.5t-98.5 9.5h-89q-118 -5 -212 -36q-39 -13 -75.5 -41.5t-54.5 -64.5q-11 -22 -15.5 -49.5t-3.5 -43.5l1 -17q63 -19 88 -35q16 -10 16 -16q1 -5 -7 -7h-2q-7 -1 -23 -2.5t-30.5 -2.5t-32 -4.5t-29.5 -9.5q-10 -4 -19 -10t-15.5 -12.5t-12 -13.5t-9 -14.5t-6 -15.5
t-3.5 -16t-1 -16q0 -18 5.5 -36t14.5 -32t20 -29.5t21 -29t18 -30t11 -32.5q17 -92 20 -235zM253 270q0 1 12.5 8t36 17.5t53.5 20.5t71 17.5t81 7.5q47 0 90.5 -7.5t73 -18t52 -21.5t32.5 -18l11 -8q6 -23 -1 -33q-3 -3 -7 -5.5t-8 -3.5t-7.5 -1.5t-6.5 -0.5h-2
q-13 7 -35 16.5t-81 25t-109 15.5q-51 0 -108 -14.5t-88 -28.5l-31 -15q-1 1 -2.5 1t-6 1t-8 2t-7.5 4t-7 6q-2 6 -2 13.5t2 13.5zM192 207q4 -9 8.5 -26.5t8 -39t6.5 -47.5q13 -99 7 -131q-3 -17 -18 -21.5t-23 3.5q-4 4 -6 22q-1 7 -0.5 46.5t-3.5 60.5q-12 89 -26 117
q-15 33 6 41q19 8 35 -15q4 -5 6 -10z" />
    <glyph glyph-name="uniE604" unicode="&#xe604;" 
d="M781 560q-77 61 -176 82q-2 11 -6.5 21.5t-11 19t-15 15.5t-18 12t-20.5 8t-22 3q-35 0 -61 -22.5t-32 -56.5q-14 -3 -27.5 -6.5t-26.5 -8.5l-26 -10q-13 -5 -25.5 -11.5t-24.5 -13.5t-23.5 -15t-22.5 -17q-18 -14 -33.5 -29.5t-28 -31.5t-22.5 -33t-17 -34t-10.5 -34
t-3.5 -33q0 -62 46 -100l44 -361q2 -10 9 -16t17 -6h536q10 0 17 6t8 16l45 361q45 38 45 100q0 32 -13.5 67t-39.5 67.5t-61 60.5zM476 651q13 19 36 19q11 0 20 -5t15 -14q8 -11 8 -25t-9 -26q-13 -17 -34 -17t-34 17q-10 12 -10 26v5l2 4q0 2 0.5 4.5t1.5 4.5t2 3.5
t2 3.5zM266 -68l-37 298q5 -1 11 -1q4 1 6 1l22 9l27 -307h-29zM336 -68l-26 307l30 -9q7 -2 15 1l25 8l13 -307h-57zM482 -68h-48l-13 309l16 -11q2 0 5 -0.5t5.5 0t5.5 1.5l29 4v-303zM589 -68h-61v309l28 -10q7 -3 15 0l32 9zM631 -68l13 309l40 -11q8 -2 16 1l14 6
l-27 -305h-56zM757 -68h-28l27 306l16 -7q7 -3 16 0h1h1l5 2zM780 283l-34 14q-10 3 -19 0l-38 -15l-58 16q-7 1 -14 -1l-53 -15l-44 15q-9 3 -17 0l-40 -15l-57 15q-3 1 -7 1t-8 -1l-45 -16l-51 16q-2 1 -4 1h-4q-2 0 -4 -0.5t-4 -0.5l-36 -14q-33 14 -48.5 34t-15.5 48
q0 44 32 90t89 83t124 53q7 -17 20 -30.5t30.5 -21t37.5 -7.5q29 0 52.5 16.5t34.5 42.5q103 -24 174.5 -91.5t71.5 -134.5q0 -28 -16 -48t-49 -34zM715 492l-47 24q-6 2 -12 2t-11 -3.5t-8 -9.5q-4 -9 -1 -18t11 -13l47 -24q2 -1 3.5 -1.5t3.5 -0.5h4q6 0 12 3.5t9 9.5
q4 8 1 17.5t-12 13.5zM497 470l-41 -51q-2 -3 -3 -5.5t-1.5 -5.5t-0.5 -6t1.5 -6t3 -5.5t4.5 -4.5q2 -2 4.5 -3t5 -1.5t4.5 -0.5q12 0 19 9l40 51q6 8 5 17.5t-8 15.5q-3 3 -7 4t-7.5 1t-7 -1t-6.5 -3t-5 -5zM337 517l-44 -28q-9 -5 -11 -14.5t3 -17.5q7 -11 20 -11h3h4l2 2
q2 0 3 1l45 28q8 5 10 14.5t-3 17.5t-14.5 10.5t-17.5 -2.5z" />
    <glyph glyph-name="uniE605" unicode="&#xe605;" 
d="M302 521q27 27 61 44.5t75 25.5t72 4l17 -2v145h-30v-111q-31 0 -63 -6q-92 -17 -154 -79l-1 -1q-37 -37 -59 -79q-42 -78 -42 -177h31q0 142 92 234zM815 308q0 -141 -92 -233l-1 -2q-54 -55 -136 -70q-18 -4 -37 -5t-25.5 -0.5t-9.5 0.5l-17 2v-145h30v112q13 0 29.5 1
t33.5 4q92 17 154 79l1 2q9 9 16 16.5t20 25t23 37.5q42 78 42 176h-31zM672 141q31 31 47.5 71.5t16.5 84.5q0 91 -64.5 155.5t-155.5 64.5q-44 0 -84 -17t-71.5 -48t-48 -71t-16.5 -84q0 -91 64.5 -155.5t155.5 -64.5t156 64zM327 297q0 78 55.5 133.5t133.5 55.5
t133.5 -55.5t55.5 -134t-55.5 -134t-133.5 -55.5q-51 0 -95 25.5t-69 69t-25 95.5z" />
    <glyph glyph-name="uniE606" unicode="&#xe606;" 
d="M199 310v2v7q0 15 0.5 43t0.5 41q1 146 1 235q0 9 5.5 14.5t15.5 5.5h100q6 0 10 -2.5t6.5 -7t2.5 -10.5v-20v-26v-21v-4v-2h17v3v3v131q0 22 21 22h97q22 0 22 -23v-94v-5h11v1v3q0 4 0.5 7t1.5 5t3 4t4.5 3t5.5 1.5t6 0.5h47h6v3v4q0 3 -0.5 38.5t-0.5 53.5q0 21 21 21
h99q20 0 20 -21q0 -50 1 -121v-3v-2h5h47q21 0 21 -22q0 -34 1 -243v-6h2h5q24 0 21 -24q-4 -27 -8.5 -56t-9.5 -65q-3 -19 -10.5 -73t-12 -83t-12.5 -83.5t-9 -65.5q0 -1 -1 -3q0 -6 -1 -9q-3 -14 -21 -14h-439h-3q-15 1 -18 15q-1 8 -12 66q-5 28 -15.5 84t-15.5 84
q-2 12 -9.5 53.5t-12.5 68t-10 52.5q0 3 -1 6.5t-2 7.5v6q-1 4 -2 7.5t-1 6.5zM785 292h-6h-29h-39h-30q-16 0 -18 -1q-7 -3 -11 -13q-2 -5 -5 -8.5t-6 -6t-7.5 -6t-6.5 -6.5q-26 -24 -52 -38q-23 -12 -46.5 -17t-47.5 -2q-14 2 -27.5 6.5t-26 10t-24.5 13.5
q-20 12 -39 28.5t-37 36.5q-3 3 -8 3h-73h-6q1 -5 4.5 -24t5.5 -29q2 -13 6 -33t6.5 -35t6 -32.5t6.5 -34.5t6 -33q2 -13 7.5 -42.5t8.5 -46t7.5 -41t8.5 -44.5q1 -6 8 -6h399h3l4 3q0 3 0.5 6t1 6.5t1 6.5t1 6.5t1.5 6.5q1 11 4.5 32.5t6 39t4.5 32.5q3 22 9 63.5t7 48.5
q10 69 15 105q2 8 4 24t3 21zM444 564v-2v-4v-112q1 -138 1 -198q0 -5 4 -6q7 -3 14 -5.5t15 -4t15 -1.5h16v333h-65zM547 241l5 2q27 14 56 42q3 4 3 9v54v65v53v64v55v5h-64v-85v-93v-81v-90zM239 620q-1 -137 -2 -290h67v290h-65zM341 527v-2v-4q1 -147 1 -186
q0 -9 5 -14q6 -5 13 -13l16 -15q8 -8 14 -13l4 -4q2 -2 4 -3t4.5 -3t3.5 -4v261h-65zM694 562v-232h65v232h-65zM657 330v4v34v36v34q0 19 -0.5 34.5t-0.5 33.5v35v10v9v10v10q0 19 20 20h9v3v103q0 4 -4 4q-12 -1 -37 -1h-10h-10h-4v-82h3h4q22 0 22 -22v-86
q0 -47 -0.5 -98.5t-0.5 -85.5v-4v-2q2 0 5 0.5t4 0.5zM406 565v15q0 21 22 21h14h13q1 0 5 1v84h-65v-121h11z" />
    <glyph glyph-name="uniE607" unicode="&#xe607;" 
d="M512 -201q82 0 158.5 25t138 71.5t108 108t71.5 138t25 158.5t-25 158.5t-71.5 138t-108 108t-138 71.5t-158.5 25q-102 0 -195 -39.5t-160 -106.5t-106.5 -160t-39.5 -195t39.5 -195t106.5 -160t160 -106.5t195 -39.5zM512 764q94 0 180.5 -36.5t148.5 -98.5
t98.5 -148.5t36.5 -181t-36.5 -180.5t-98.5 -148t-148.5 -98.5t-180.5 -36.5t-180.5 36.5t-148.5 98.5t-98.5 148t-36.5 180.5t36.5 181t98.5 148.5t148.5 98.5t180.5 36.5zM343 275l260 -259l26 26l-259 259l259 260l-26 26l-260 -259l-26 -27v0z" />
    <glyph glyph-name="uniE608" unicode="&#xe608;" horiz-adv-x="1025" 
d="M1024 440q0 33 -24 56.5t-57 23.5h-63q20 19 31.5 45t11.5 55q0 58 -41.5 99t-100.5 41q-98 0 -163 -152q-8 4 -17.5 6.5t-20.5 4t-22 1.5q-16 0 -31 -3t-28 -9q-65 152 -163 152q-25 0 -47.5 -8t-40.5 -22t-30.5 -33.5t-18.5 -42.5q9 -2 19 -4.5t20 -5.5q8 33 35.5 55
t62.5 22q74 0 129 -137q-3 -5 -5 -10t-2 -10q4 1 6 1q-2 0 -6 -3v-1l-1 -1q0 -4 1 -7.5t2.5 -7t4 -7t5.5 -6.5l6 -6v-1q-16 -3 -35.5 -3t-55.5 12t-80 36q-58 31 -111 42.5t-84.5 8t-59 -16.5t-34.5 -19.5t-11 -11.5q-6 -7 -5 -15t7.5 -13.5t15 -4.5t13.5 8q3 3 9 8.5
t27.5 14.5t48 11t70.5 -9t94 -38q49 -27 89.5 -40t73.5 -13q7 0 13 0.5t13 1.5q0 -1 1 -2t1 -2h62v-160h-405v120q0 17 12 28.5t29 11.5h134q-11 5 -21.5 10.5t-20.5 10.5q-19 11 -39 19h-53q-17 0 -32 -6.5t-25.5 -17t-17 -25.5t-6.5 -31v-160h61v-360q0 -22 10.5 -40.5
t29.5 -29t41 -10.5h303h41h303q34 0 57.5 23.5t23.5 56.5v360h61v160zM538 -120h-303q-17 0 -29 11.5t-12 28.5v360h344v-400zM660 560q0 4 -1 8t-3 8t-5 8q56 137 130 137q42 0 71.5 -29.5t29.5 -71t-30 -71t-71 -29.5h-147q26 18 26 40zM558 540q-11 0 -23 2q-3 6 -8 8
t-10 2t-9 -3q-5 2 -7.5 5t-2.5 6q0 8 17.5 14t42.5 6t43 -6t18 -14q0 -4 -5 -7.5t-13 -6.5t-19 -4.5t-24 -1.5zM923 -80q0 -11 -5.5 -20t-15 -14.5t-20.5 -5.5h-303v400h344v-360zM983 320h-404v160h202h162q17 0 28.5 -11.5t11.5 -28.5v-120z" />
    <glyph glyph-name="uniE609" unicode="&#xe609;" 
d="M224 -51q-7 0 -12.5 5t-5.5 13v63q0 95 54 172q53 76 139 110l23 9l-20 15q-32 26 -50 62t-18 77q0 73 52 125t125.5 52t126 -52t52.5 -125q0 -20 -5 -39.5t-13.5 -37.5t-21 -33.5t-29.5 -28.5l-19 -15l23 -9q86 -34 139 -110q54 -77 54 -172v-63q0 -8 -5.5 -13t-12.5 -5
h-576zM512 299q-112 0 -191 -79t-79 -190v-46h540v46q0 73 -36 135t-98.5 98t-135.5 36zM512 616q-29 0 -55.5 -11t-45.5 -30t-30 -45t-11 -55q0 -23 7 -44.5t20 -39t30.5 -30.5t39.5 -20t45 -7q59 0 100.5 41.5t41.5 99.5q0 13 -2.5 25.5t-6.5 24t-10.5 22t-14 19.5t-17 17
t-20 14t-22 10.5t-24 6.5t-25.5 2zM96 44q-7 0 -12.5 5.5t-5.5 12.5v49q0 45 16 86t45 74t69 53l17 9l-13 13q-38 42 -38 97t36.5 96t89.5 48q-2 -4 -4.5 -8t-4.5 -8.5t-4 -8.5t-4 -8.5t-4 -8.5q-31 -13 -50 -40.5t-19 -61.5q0 -32 17.5 -59t46.5 -40l1 -1q13 -4 13 -16
t-13 -16l-6 -1q-68 -18 -111.5 -73t-43.5 -126v-31h29q-3 -18 -4 -36h-43zM884 44q-1 18 -3 36h29v31q0 71 -43.5 126t-112.5 73l-6 1q-12 4 -12 16t12 16l1 1q29 13 47 40t18 59q0 34 -19.5 61.5t-50.5 40.5q-8 22 -21 42q54 -7 90 -48t36 -96t-38 -97l-12 -13l16 -9
q60 -31 95 -88t35 -125v-49q0 -7 -5 -12.5t-13 -5.5h-43z" />
    <glyph glyph-name="uniE60A" unicode="&#xe60a;" 
d="M888 -147q0 119 -66.5 215t-173.5 138q45 24 78.5 62.5t52.5 88t19 102.5q0 79 -38.5 145t-104.5 104.5t-143 38.5q-59 0 -112 -22.5t-91 -61t-61 -92t-23 -112.5q0 -53 19 -102.5t53 -88t78 -62.5q-107 -42 -173.5 -138t-66.5 -215h56v5v4v5q0 87 43 161t116.5 117
t161 43t161 -43t116.5 -117t43 -161v-3v-4v-3v-4h56zM286 459q0 94 66 161t160 67q61 0 113 -30.5t82.5 -83t30.5 -114t-30.5 -114t-82.5 -83t-113 -30.5q-102 0 -169 76q-57 65 -57 151z" />
    <glyph glyph-name="uniE60B" unicode="&#xe60b;" horiz-adv-x="1025" 
d="M647 330q-7 8 -13.5 15.5t-14.5 13.5q-8 8 -17 15t-19 13q-5 -21 -6 -40v-11q0 -6 0.5 -12t1.5 -13q2 -19 10 -35q9 -16 24 -22q7 -3 14 -4t13.5 0.5t12 5t9.5 9.5q8 11 3.5 30t-18.5 35zM500 192q-17 25 -38 51q-2 -5 -4 -10.5t-3.5 -11t-2.5 -11t-2 -10.5l-2 -10
q-5 -23 -7 -48q-2 -24 5 -43q3 -10 8.5 -17t14.5 -12q3 -2 7 -4l6 -2q4 -2 8 -2l6 -2h7q18 -1 31 8.5t10 30.5q-2 21 -16 46l-6 12l-8 12q-3 6 -6.5 11.5t-7.5 11.5zM1016 427l-6 7q-4 3 -8 6.5t-9 7.5t-11 8q-11 7 -23 14.5t-23 13.5q-26 15 -58 31q15 -28 27 -50
q2 -4 7 -13.5t8.5 -17t7.5 -14.5q3 -6 7.5 -14t8.5 -15.5t7 -13.5q1 -3 3 -6t4 -5t4 -3.5t4 -2.5t4.5 -2t5.5 -1q8 0 15 3t14 8q3 3 5.5 6t5 6.5t4 7.5t2.5 8q6 17 -6 31zM700 750q-24 3 -43 -13l-115 -95q-3 3 -6 6.5t-7 7.5t-10 9q-15 15 -43 30t-70 25q-21 5 -46.5 7.5
t-55.5 2.5q-148 0 -226 -75q-39 -37 -58.5 -90.5t-19.5 -121.5q0 -23 4.5 -46t12.5 -45q18 -45 44 -90q26 -44 57 -87q31 -44 57 -84q13 -21 24 -41.5t19 -40.5q18 -39 18 -77v-144h115v135q0 60 -17.5 108.5t-43.5 89.5q-25 43 -55 80t-56 77q-9 13 -16.5 26.5t-14.5 27.5
t-12 28q-9 22 -13.5 46t-4.5 50q0 51 17.5 83t44.5 49.5t59 24.5q11 2 21 3.5t20.5 2t19.5 0.5q12 0 23.5 -1.5t22.5 -4.5q4 -1 7.5 -2t7.5 -2t7.5 -2.5t6.5 -2.5t6.5 -2.5t6.5 -3.5q20 -9 35 -18q4 -2 7.5 -4.5t6.5 -4t5 -3.5t5 -3l-108 -88q-6 -6 -10.5 -12t-7.5 -13
t-4 -15q-3 -24 13 -43q4 -4 8.5 -8t9.5 -6.5t10.5 -4.5t11.5 -2q24 -3 43 13l318 260q6 5 10.5 11t7.5 13.5t4 15.5q1 12 -2.5 22.5t-10.5 19.5q-16 19 -40 22zM978 246q-21 15 -40 25q-12 6 -23.5 11t-23.5 10q3 -19 8 -38q5 -16 12 -35q7 -18 19 -38q11 -19 29 -23
q9 -2 17 -1.5t16 3.5q15 6 21 20q3 5 3 10t-1.5 11t-5.5 12q-11 19 -31 33z" />
    <glyph glyph-name="uniE60C" unicode="&#xe60c;" 
d="M471 305h-274q-2 -4 -2.5 -13.5t0.5 -22.5t5.5 -28t11.5 -30t19 -29t27 -25t37 -17.5t48 -6.5q18 0 34 4.5t28 11.5t22.5 17t18 21.5t13 23.5t8.5 24t5 23.5t2 20.5t-0.5 16t-2.5 10zM362 -167v260q70 12 116.5 74t46.5 144q0 33 -8 64t-24 58l-5 9h-310l-5 -9
q-10 -18 -17 -38t-10.5 -41t-3.5 -43q0 -83 47 -145t117 -73v-260q-41 -2 -67 -7.5t-26 -12.5q0 -3 6 -6t17 -5.5t26 -4.5t33.5 -3t38.5 -1t38.5 1t33.5 3t26 4.5t17.5 5.5t6.5 6q0 5 -12.5 9t-33.5 7t-48 4zM176 311q0 26 5.5 50.5t17.5 46.5h269q23 -45 23 -97
q0 -91 -62 -148q-43 -38 -96 -39q-65 0 -111 55t-46 132zM658 800h129v-111h-129v111zM787 551v104h-129v-104q-42 -19 -67.5 -57.5t-25.5 -84.5v-616h315v616q0 46 -25.5 84.5t-67.5 57.5zM574 298h297v-306h-297v306z" />
    <glyph glyph-name="uniE60D" unicode="&#xe60d;" 
d="M582 687q-49 0 -95 -14t-84 -40.5t-68 -62t-48 -79.5t-23 -92q8 32 23 61.5t36 54.5q46 52 107.5 81.5t127.5 32.5q28 1 55.5 -4t52.5 -14.5t48 -24t43 -34.5q65 -66 64.5 -163t-67.5 -168q-55 -59 -145 -61q-88 -2 -142 52q-52 51 -52 125q-1 72 49 121q42 42 102 42
t103 -43q34 -35 33.5 -84.5t-35.5 -83.5q-29 -29 -69.5 -29t-69.5 29q-12 11 -18 26.5t-6 31.5q0 35 24 59q4 4 9.5 5.5t11 0t9.5 -5.5q7 -6 7 -15t-7 -16q-5 -5 -8 -12.5t-3 -15.5t3 -15t8 -13q17 -16 39.5 -16t39.5 16q22 22 22 54t-21 54q-7 7 -15.5 12.5t-17.5 9.5
t-19 6t-20 2q-42 0 -72 -29q-36 -37 -36 -91q0 -10 1.5 -20.5t5 -20.5t8 -19.5t11 -18t13.5 -15.5q42 -41 111 -39q72 1 115 47q55 58 56 137.5t-53 133.5q-67 67 -167 63q-57 -1 -110 -27t-93 -72q-39 -45 -52 -104t3 -122q12 -46 43 -90l-170 -169q-7 -8 -7 -18.5t7 -18.5
l6 -4q3 -2 6 -3t7 -1q10 0 18 8l165 165q37 -37 86.5 -59t113.5 -22q87 0 160.5 43t116 116.5t42.5 160.5t-42.5 160.5t-116 116t-160.5 42.5z" />
    <glyph glyph-name="uniE60E" unicode="&#xe60e;" 
d="M832 767v1q-1 5 -6 7q-8 4 -27 9t-100 13.5t-193 8.5q-111 0 -189 -8.5t-95.5 -13.5t-24.5 -9q-4 -2 -5 -7v-1l-67 -485q-1 -9 7 -11q14 -4 41.5 -9.5t124 -14t213.5 -8.5h2q74 0 140 3.5t106 7.5t73.5 9.5t43.5 7.5t16 4q8 2 7 11zM785 766q-24 -4 -55.5 -7.5t-91 -6.5
t-132.5 -3q-182 0 -270 18q36 8 101.5 13.5t168.5 5.5q104 0 171.5 -5.5t107.5 -14.5zM513 258h-2q-238 0 -365 30l64 465q80 -23 296 -23q224 0 308 23l64 -465q-127 -30 -365 -30zM592 172q-3 10 -12 7q-4 -1 -6 -4.5t-1 -7.5l90 -337q-53 -16 -156 -16t-156 16l90 337
q1 4 -1 7.5t-6 4.5q-9 3 -12 -7l-92 -345q-1 -3 -0.5 -5t2 -4t3.5 -3q46 -20 173 -21q126 1 171 21q3 2 4.5 5t0.5 7z" />
    <glyph glyph-name="uniE60F" unicode="&#xe60f;" 
d="M891 240q-4 -24 -23.5 -40.5t-43.5 -16.5h-394q-24 0 -43.5 17t-22.5 40l-44 317q-3 24 11.5 38t37.5 10l506 -90q24 -4 38 -24t10 -44zM810 148h-481l-63 475q-2 10 -9.5 17.5t-17.5 7.5h-2h-2h-115q-12 0 -20.5 -7.5t-8.5 -18t8.5 -18.5t20.5 -8h97l63 -474
q2 -11 10 -18.5t18 -6.5h2h500q12 0 20.5 7.5t8.5 18t-8.5 18t-20.5 7.5zM472 7q0 -16 -7.5 -29t-21 -21t-28.5 -8q-24 0 -41 17t-17 41q0 15 8 28.5t21 21t29 7.5q11 0 22 -4.5t18.5 -12t12 -18.5t4.5 -22zM784 7q0 -16 -7.5 -29t-21 -21t-29 -8t-28.5 8t-21 21t-8 29
q0 23 17 40t41 17t40.5 -17t16.5 -40z" />
    <glyph glyph-name="uniE610" unicode="&#xe610;" 
d="M787 427v243h-111v-146l-166 146l-444 -389h111v-388h277v222h111v-222h278v388h111z" />
    <glyph glyph-name="uniE611" unicode="&#xe611;" 
d="M51 102h380q-58 40 -102 99h-278q-19 0 -32 -13.5t-13 -31.5v-9q0 -19 13 -32t32 -13zM875 90q-2 5 -5.5 10t-8 8t-9.5 5.5t-10.5 3.5t-11.5 0.5t-12 -2.5l-11 -4q-17 -6 -24.5 -22.5t-1.5 -32.5l78 -202q6 -17 22.5 -24.5t34.5 -1.5l10 4q12 4 19.5 13t9 20t-2.5 23z
M690 -63h-199h-12h-108h-320q-19 0 -32 -13.5t-13 -32.5v-8q0 -19 13 -32t32 -13h269h171v-1h199q19 0 32 13.5t13 32.5v8q0 13 -6 23.5t-16.5 16.5t-22.5 6zM982 598q-53 104 -158.5 151.5t-215.5 21.5q-20 -5 -39 -11.5t-37 -15.5q-49 -25 -88 -66q-78 -80 -91 -191
q-6 -47 2 -94q8 -53 32 -99q26 -50 68 -90q54 -52 125 -75q132 -44 256 20q61 31 104 82.5t62.5 111.5t15 127.5t-35.5 127.5zM684 193q-68 0 -126.5 34t-92.5 92t-34 127q0 105 74 179t179 74t179 -74t74 -179q0 -41 -12.5 -79.5t-36 -70t-54.5 -55t-69.5 -36t-80.5 -12.5z
M258 473h-204q-13 0 -24 -6.5t-17.5 -18t-6.5 -24.5v-9q0 -20 14 -34.5t34 -14.5h210q-3 20 -5 40t-2 40v6v5q0 3 0.5 5t0.5 6v5zM334 201h-283q-19 0 -32 -13.5t-13 -31.5v-9q0 -19 13 -32t32 -13h269h112q-58 42 -98 99zM388 753h-17h-320q-19 0 -32 -13t-13 -32v-8
q0 -8 2 -15t6.5 -12.5t10 -9.5t12.5 -6.5t14 -2.5h260q6 11 13 22t14.5 21t15.5 19.5t16.5 19t17.5 17.5z" />
    <glyph glyph-name="uniE612" unicode="&#xe612;" horiz-adv-x="1106" 
d="M910 -16q-39 9 -75 24t-59.5 29.5t-43 30.5t-28.5 25.5t-15 16.5q-8 11 -10 24.5t-2 36.5q0 13 8 29l4 8q1 2 13.5 30.5t19.5 43.5q0 1 1.5 4t3.5 6.5t5 7t6 6.5q18 13 45 45q22 38 17 67.5t-29 46.5v8q26 72 20 164q-1 28 -15 57t-41 56t-74 44.5t-106.5 17.5t-106 -17
t-73.5 -43.5t-41 -56t-16 -58.5v-2v-1v-1v-1v-2v-1v-1v-1v-1v-2q-2 -32 1 -61v-1v-1v-1v-2l1 -1v-1v-1v-1v-1v-1v-2l1 -1v-1v-1v-1v-1v-1l1 -1v-2v-1v-1v-1v-1l1 -1v-1v-1v-1v-2l1 -1v-1v-1v-1v-1l1 -1v-1v-1v-1l1 -2v-1v-1v-1l1 -1v-1v-1v-1l1 -1v-1v-1v-1l1 -1v-2v-1l1 -1
v-1v-1v-1l1 -1v-1v-1l1 -1v-1v-1l1 -1v-1v-1l1 -1v-1v-1l1 -1v-1l1 -1v-1v-1l1 -1v-1v-1l1 -1v-1l1 -2v-8q-11 -9 -18 -21.5t-10 -28t1 -33t14 -35.5q18 -27 45 -45q6 -6 11.5 -13.5t5.5 -10.5q24 -49 32 -74l4 -8q8 -24 8 -29q0 -44 -12 -61q-5 -7 -14 -16.5t-29 -25.5
t-43 -30.5t-59 -29.5t-75 -24q-33 -8 -50.5 -12.5t-42.5 -12.5t-38 -16.5t-28.5 -21t-23 -28t-12.5 -37t-5 -48.5q0 -4 2.5 -8.5t7.5 -8t10 -3.5h1065q7 0 14 6t7 14q2 87 -41.5 119t-154.5 57z" />
    <glyph glyph-name="uniE613" unicode="&#xe613;" 
d="M863 619q-102 47 -207.5 88t-142.5 41q-26 0 -93.5 -23.5t-132 -50.5t-125.5 -55q-11 -5 -19 -14t-12.5 -20t-4.5 -23q4 -192 59 -331q28 -70 67 -132.5t75.5 -104t73.5 -73.5t63.5 -47.5t42.5 -19.5q3 -1 5.5 -1t5.5 1q23 6 61 33.5t84.5 72.5t94.5 117t81 154
q55 138 59 331q0 11 -4.5 22.5t-13 21t-17.5 13.5zM799 247q-30 -76 -74 -143t-86 -108.5t-74.5 -66t-52.5 -32.5q-15 6 -38 21t-56.5 45t-65.5 68t-66.5 95t-60.5 121q-52 132 -56 316q0 12 11 17q116 54 211.5 90t121.5 36t121 -36t211 -89q3 -2 6.5 -8t3.5 -10
q-1 -78 -14 -160.5t-42 -155.5zM522 464h-20q-10 0 -10 -11v-223q0 -11 10 -11h20q11 0 11 11v223q0 11 -11 11zM512.5 179q-8.5 0 -14.5 -6t-6 -14.5t6 -14.5t14.5 -6t14.5 6t6 14.5t-6 14.5t-14.5 6z" />
    <glyph glyph-name="uniE614" unicode="&#xe614;" 
d="M644 590v54q5 1 9.5 3.5t7.5 6t5 8.5t2 10v37q0 12 -9.5 20.5t-22.5 8.5h-248q-13 0 -22 -8.5t-9 -20.5v-37q0 -11 6.5 -18.5t16.5 -9.5v-54q-4 -12 -21.5 -30.5t-35 -35t-31.5 -44.5t-14 -60v-509q0 -31 23 -52.5t56 -21.5h311q21 0 39 10t28.5 27t10.5 37v509
q0 20 -6.5 39.5t-16.5 34.5t-22 30.5t-23 26.5t-20.5 21.5t-13.5 17.5zM610 -91h-203h-7q-3 0 -13 2.5t-17.5 7t-13.5 15t-6 25.5v448q0 5 0.5 12.5t6 27.5t15 35t30.5 27t50 12h119q4 1 11 0.5t25 -6t31.5 -16t25 -34.5t11.5 -58v-448q0 -6 -0.5 -14t-16.5 -22t-48 -14z
" />
    <glyph glyph-name="uniE615" unicode="&#xe615;" 
d="M690 3q-5 0 -10 1.5t-9.5 4t-8.5 6.5l-436 436q-14 14 -11 34t21 29l147 78q26 13 46 -7l367 -367q20 -20 7 -46l-78 -148q-9 -17 -29 -20q-2 0 -3.5 -0.5t-2.5 -0.5zM320 469l360 -360l39 74l-325 325zM668 269q-7 0 -14 3t-13 8q-12 10 -13 26.5t10 28.5l293 327
q0 1 1 1v1q4 4 6.5 8.5t4 9.5t1.5 10.5t-1.5 10.5t-4 9.5t-6.5 8.5q-6 6 -13.5 9t-15 3t-15 -3t-13.5 -9l-2 -1l-327 -293q-6 -5 -13.5 -7.5t-15 -2t-14.5 3.5t-12 9q-11 13 -10 29t13 27l326 292q35 34 84 34t84 -35t35 -84q0 -16 -4 -31t-11.5 -28.5t-18.5 -24.5
l-292 -326q-12 -14 -29 -14zM456 -211q-9 0 -14 6l-53 53q-10 10 -4 22l8 17l-13 -9q-13 -8 -25 3l-47 48q-11 11 -3 24l39 66l-66 -40q-13 -8 -24 3l-116 116q-9 9 -4 21l16 43l-39 -18q-12 -6 -22 4l-83 83q-7 6 -6 15t8 15l269 199q2 2 5 3t5.5 1t5.5 -0.5t5.5 -2
t4.5 -3.5l366 -366q12 -12 2 -26l-199 -269q-2 -2 -4.5 -4t-5 -3t-5.5 -1h-1zM427 -134l26 -27l176 237l-342 342l-237 -176l57 -57l70 33q12 6 21.5 -3t5.5 -21l-29 -77l96 -96l120 73q13 8 24 -3q3 -3 4.5 -7t1.5 -8.5t-3 -8.5l-72 -121l26 -26l59 38q13 8 24 -2t4 -23z
" />
    <glyph glyph-name="uniE616" unicode="&#xe616;" 
d="M674 274l-45 -45l-32 29l-39 38l70 75q39 -17 79 -18.5t75 10.5t63 36q15 13 26 32t16 37t8 34.5t3 26.5l1 9l-44 17l-83 -84l-122 120l84 86l-17 43q-9 0 -24.5 -1.5t-53 -15.5t-62.5 -39q-40 -39 -49.5 -97t17.5 -116l-73 -72l-105 102l-7 72l-98 63l-28 -27l-28 -28
l-28 -28l64 -99l67 -6l108 -102l-276 -269q1 -3 -1 -14t4.5 -32.5t20.5 -35.5q12 -12 30 -17t31 -4h12l268 287l39 -37l29 -29l-56 -57l238 -238q112 30 155 156q-119 119 -237 238zM245 13q-6 -6 -14.5 -8.5t-17 -0.5t-14.5 9q-10 9 -10 22.5t9.5 23.5t23 10t23 -9.5
t9.5 -23t-9 -23.5zM763 -59l-180 181l27 27l186 -188zM827 -8l-187 187l27 27l180 -181z" />
    <glyph glyph-name="uniE617" unicode="&#xe617;" horiz-adv-x="1204" 
d="M4 812h-4v0h4zM1138 357q1 2 2.5 4t5.5 8.5t6.5 13.5t4 18t-0.5 21.5t-8.5 23.5t-17.5 25q-2 2 -6.5 4.5t-17 7.5t-25 6.5t-29 -2.5t-30.5 -16l-503 -500q-2 -2 -4.5 -5.5t-7.5 -15t-7 -22.5t0 -26t10 -28q1 -3 4 -7t13.5 -12.5t22.5 -13.5t32.5 -4.5t42.5 10.5l204 200z
M922 337h52v56h29v-56h55v-28h-55v-54h-29v54h-52v28zM748 -2h-55v-55h-29v55h-52v28h52v56h29v-56h55v-28zM767 154v27h52v56h29v-55h54v-28h-54v-55h-29v55h-52zM981 528l-8 2q-2 1 -5 1t-5.5 0.5t-4.5 0.5h-6q-18 0 -34 -7v0l-5 -3q-4 -3 -11 -8t-9 -7
q-72 -48 -142 -110.5t-115.5 -111t-87.5 -101t-55 -71t-21 -31.5l-5 -6q-9 -17 -9 -37l1 -14q3 -13 9 -25t12 -18l5 -6l532 530q-3 2 -6 4.5t-6 4.5l-6 4q-3 2 -6 3l-6 4zM1203 303q-2 8 -5 16.5t-6.5 14t-7 10t-5.5 6.5l-2 2l-532 -529q8 -8 17 -13.5t19 -8.5q8 -2 8 -3h5
q3 -1 5.5 -1.5t4.5 -0.5h6q18 1 34 8v0l5 2q4 3 11.5 8.5t8.5 6.5q235 159 421 426l5 5q4 10 6.5 19t2.5 18q0 2 -0.5 4.5t-0.5 4.5v5z" />
    <glyph glyph-name="uniE618" unicode="&#xe618;" 
d="M703 -147h-383q-35 0 -64.5 17.5t-46.5 46.5t-17 64v224v159v32q0 10 5.5 18t14.5 12l131 132q-37 3 -62 30t-25 64q0 26 13 48t35 35t48 13h64h191h64q20 0 37.5 -8t30.5 -20.5t20.5 -30.5t7.5 -37q0 -12 -3 -23.5t-8.5 -21t-13 -18t-16.5 -15t-20 -10.5t-23 -6
l142 -143q1 0 1 -1.5t1 -2.5q2 -4 3 -7.5t1 -7.5h-1v-2q1 -5 1 -6v-24v-32v-351q0 -53 -37.5 -90.5t-90.5 -37.5zM703 652q0 8 -4.5 15.5t-11.5 12t-16 4.5h-319q-7 0 -13 -2.5t-10 -7t-6.5 -10.5t-2.5 -12q0 -13 9.5 -22.5t22.5 -9.5h319q13 0 22.5 9.5t9.5 22.5zM767 332
v32h-319v-319h319v287zM416 -19q-14 0 -23 9.5t-9 22.5v383q0 14 9 23t23 9h307l-127 128h-165l-175 -176v-16v-159v-224q0 -17 8.5 -32t23 -23.5t32.5 -8.5h383q26 0 45 19t19 45h-351zM543 237h32v32q0 13 9.5 22.5t22.5 9.5t22.5 -9.5t9.5 -22.5v-32h32q9 0 16 -4.5
t11.5 -12t4.5 -15.5q0 -14 -9.5 -23t-22.5 -9h-32v-32q0 -13 -9.5 -22.5t-22.5 -9.5t-22.5 9.5t-9.5 22.5v32h-32q-13 0 -22.5 9t-9.5 22.5t9.5 23t22.5 9.5z" />
    <glyph glyph-name="uniE619" unicode="&#xe619;" 
d="M512 788q-66 0 -129.5 -17.5t-117 -49t-98.5 -76.5t-76.5 -98.5t-49 -117t-17.5 -129.5q0 -99 38.5 -189.5t104 -156t156 -104t189.5 -38.5t189.5 38.5t156 104t104 156t38.5 189.5t-38.5 189.5t-104 156t-156 104t-189.5 38.5zM512 -151q-92 0 -175.5 36t-143.5 96
t-96 143.5t-36 175.5t36 175.5t96 143.5t143.5 96t175.5 36t175.5 -36t143.5 -96t96 -143.5t36 -175.5q0 -61 -16.5 -119.5t-45.5 -108t-70.5 -91t-91 -70.5t-108 -45.5t-119.5 -16.5zM512 353q-22 0 -37 -15q-5 -5 -8 -10.5t-5 -12.5t-2 -14q0 -10 4 -19.5t11 -16.5
q4 -4 8 -6.5t8.5 -4.5t9.5 -3t11 -1q21 0 36 15t15 36.5t-15 36.5l-1 1q-7 7 -16 10.5t-19 3.5v0zM440 373q7 7 15 12.5t17 9.5t19 6t21 2q41 0 70 -28q1 0 2 -1v-1q30 -29 30 -71.5t-30 -72.5v0l-18 18l18 -18l-10 -8q-5 -4 -11 -7.5t-12 -6t-12.5 -4.5t-13 -3t-13.5 -1
q-21 0 -39.5 8t-32.5 22q-30 30 -30 72q0 11 2 21t6 19t9.5 17.5t12.5 14.5v0zM807 317v-32v-5q-2 -10 -6.5 -19t-11.5 -16l-18 17l18 -17l-2 -2q-15 -14 -35 -17l-4 25l4 -25h-4h-35q-2 -1 -3 -2h-1q0 -1 -0.5 -2t-1.5 -1v-5q0 -2 1 -4l24 -24l-17 -18l18 18q2 -2 3 -5
q12 -17 12 -38q0 -10 -3.5 -20.5t-10.5 -18.5l-20 15l20 -15l-3 -4l-22 -21q0 -1 -1 -1.5t-2 -1.5q-17 -13 -38 -13v25v-25h-3q-10 1 -19.5 4t-17.5 9l15 20l-15 -20l-2 2l-2 2l-19 19v0l-1 1q-5 5 -8 5t-8 -5q-2 -5 -1 -25q1 -11 1 -12t-0.5 -2.5t-0.5 -3.5q-2 -10 -7 -19
t-12 -16q-16 -16 -38 -18h-1h-2h-31h-5q-21 3 -36 18q-16 16 -19 38v3v1v0v5v6l3 -1v1h-3v2q1 7 0.5 15t-2.5 10l17 18l-17 -18l-2 1q-1 1 -3 2q-1 0 -3 -0.5t-4 -1.5l-24 -24l-18 17l18 -17l-2 -2l-2 -2q-17 -12 -38 -12v0h-3q-7 1 -13.5 2.5t-12.5 4.5t-11 7l-2 2l-2 2
l-21 21l-2 2q-1 1 -1 2q-12 17 -12 37q-1 23 13 40h-1q2 3 4 4l7 6q18 17 18 22q0 3 -2 5l-2 2q-1 1 -2 1l7 24l-7 -24l-2 1h-24h-5h-3h-2h-6q-20 4 -35 19q-1 1 -1 2q-15 15 -17 36v2v1v31v3v2q3 21 18 36l18 -18l-18 18l2 2q5 4 10.5 7.5t12 6t13.5 3.5h3h1h34q2 1 3 2v0
l1 1l2 4v0v0q1 1 1 2v2v1l-1 1v0l-25 25l18 18l-18 -18l-4 5q-6 8 -9 18t-2 19q0 11 3.5 21.5t10.5 18.5l3 3l21 22l18 -18l-18 18q2 1 4 3q16 12 38 13q22 0 39 -13q2 -1 3 -2l2 -2q3 -3 6 -7q16 -18 21 -18q9 0 9 34v3v5q0 3 1 6q3 20 18 35q16 15 38 18h3h31h3h2
q21 -3 36 -18q16 -16 19 -38q1 -1 1 -3v-1l-1 -11q-1 -23 3 -27q1 -1 2.5 -2t3.5 -1h2l3 2l24 24q3 3 5 4q9 6 18.5 9t19.5 3v-26v26h2l1 -1h3q2 0 4 -1h4l4 -2h4q2 -1 3.5 -2t3.5 -2t3.5 -2t3.5 -2t3 -2l-15 -20l15 20l4 -4l21 -21l-18 -18l18 18q2 -1 3 -3q13 -17 13 -39
q0 -10 -3.5 -20.5t-9.5 -18.5l-20 15l20 -15q-1 -2 -2 -3t-2 -1l-12 -13l-7 7l7 -7v0l-11 -11l-1 -1v0v0v-1v-2v-2q0 -2 0.5 -2.5t1 -1.5t1.5 -1v0q5 -3 27 -2h2h9h4h2q21 -4 35 -19q16 -16 18 -38v-2v-1v0zM757 287v29q-1 4 -4 7l-7 4h-5h-2v0q-10 0 -18.5 -0.5t-18 2
t-17.5 6.5q-1 1 -1.5 1t-0.5 1q-13 8 -20 21q-1 3 -2.5 6.5t-2.5 7t-1.5 7t-0.5 7.5q0 8 3 16q0 2 1 3q1 4 3 8t5 7q1 2 3 4l12 13l13 12q1 2 1.5 4t0.5 4t-1 4l-2 4l-20 20q-1 1 -3 1.5t-3 0.5h-2q-2 0 -4 -0.5t-4 -1.5l-23 -23l-2 -2l-1 -1l-16 20l16 -20q-18 -14 -40 -13
q-21 1 -37 15q-1 1 -2 3l18 17l-18 -17q-19 19 -17 64v8q0 2 -1 3.5t-3 3.5q-3 3 -7 4h-29q-2 -1 -3.5 -2t-3.5 -2l-4 -7v-3v-1v-1v0q1 -57 -19 -73q-14 -12 -40 -12q-12 0 -24 6t-18 11.5t-16 16.5l-5 5q-4 2 -8 2t-8 -2l-20 -20q-2 -4 -2 -8t2 -8l23 -23l2 -2l-8 -8l8 8
q11 -12 13 -28q0 -1 1 -2v0q1 -13 -3 -26q-1 -1 -1 -2q-5 -13 -14 -22l-2 -2q-4 -4 -8.5 -6.5t-10 -5t-11.5 -3.5h-3h-2h-35l-6 -3l-1 -1q-3 -3 -4 -7v-29q1 -2 1.5 -3.5t1.5 -2.5l1 -1l-7 -8v1l7 7q3 -3 7 -4h7q28 1 39 -2l2 -1q4 -1 7.5 -2.5t6.5 -3.5t6 -4.5t5.5 -5
t4.5 -5.5q12 -16 12 -35q0 -12 -6 -24t-11.5 -18.5t-16.5 -16.5l-5 -4q-2 -4 -2 -8t2 -8l20 -20q3 -2 7 -3l1 1v-1q2 0 3 0.5t2.5 1t2.5 1.5l24 23q1 1 2 2.5t3 2.5l14 -21l-14 21q19 12 39 11q10 -1 19 -5t17 -11l1 -1v-1q19 -19 17 -62v-1v-1v0v-8l2 -4q1 -2 2 -3
q3 -3 7 -4h29q1 0 2.5 1t2.5 1.5t2 1.5q3 3 4 7v8q-2 38 10 56l4 5q6 6 11 9.5t10.5 6t11.5 4t12 1.5q23 0 43 -19q1 -1 2 -1l-1 -1l19 -18q3 -2 7 -3h1v0q5 0 8 3l20 20q3 4 3 8t-2 8l-24 23l-3 3l20 16l-20 -16q-10 13 -12 31q-1 5 -0.5 10t1.5 9.5t3 9.5q5 12 16 21
q0 1 2 2l7 -9l-7 9q4 3 8 5.5t9 4.5t10 2l5 1h35q4 1 6 3l1 1q2 1 3 3t1 4v0zM254 264l-2 -2l2 2v0zM254 264z" />
    <glyph glyph-name="uniE61A" unicode="&#xe61a;" 
d="M352 461h322v-35h-322v35zM352 343h322v-35h-322v35zM352 224h214v-35h-214v35zM238 -66l40 133q-66 51 -104 110q-45 71 -45 145q0 22 3.5 44t10.5 43t18 42q30 58 84 104q53 45 122 70q23 9 47 14.5t48 8.5t49 3q159 0 271 -96q53 -45 82 -105q30 -61 30 -128.5
t-30 -128.5q-29 -59 -82 -104q-54 -47 -124 -71.5t-147 -24.5q-45 0 -127 21zM511 620q-94 0 -175 -40.5t-129 -109.5t-48 -148q0 -62 37.5 -123t108.5 -114l8 -6l-24 -82l90 49l6 -1q28 -7 43.5 -10.5t39.5 -7t43 -3.5q96 0 177 40t128 108.5t47 149.5q0 119 -98 206
q-107 90 -254 92z" />
    <glyph glyph-name="uniE61B" unicode="&#xe61b;" 
d="M447 463h-202q-39 0 -67 27.5t-28 67.5v46q0 39 28 67t67 28h202q25 0 47 -13t35 -34.5t13 -47.5v-46q0 -40 -28 -67.5t-67 -27.5zM245 658q-22 0 -38 -16t-16 -38v-46q0 -23 16 -38.5t38 -15.5h202q22 0 38 15.5t16 38.5v46q0 22 -16 38t-38 16h-202zM530 -113h-368
q-41 0 -69 29.5t-28 71.5v263q0 26 13 50l2 4q1 2 4 5l122 174q2 3 4.5 4.5t5.5 3t7 1.5h246q11 0 17 -9l124 -176q2 -4 4 -7.5t4 -7.5t3.5 -8t2.5 -8.5t1.5 -8.5t1 -8.5t0.5 -8.5v-263q0 -27 -13 -50.5t-35.5 -37t-48.5 -13.5zM115 284l-1 -1q-2 -3 -3 -6t-2 -6.5t-2 -6.5
t-1.5 -6.5t-0.5 -6.5v-263q0 -25 16.5 -42.5t40.5 -17.5h368q23 0 39.5 17.5t16.5 42.5v263q0 19 -10 34l-118 167h-225l-115 -164q-1 -1 -3 -4zM372 192h-265q-8 0 -14 6t-6 14.5t6 14.5t14 6h265q9 0 15 -6t6 -15q0 -3 -1.5 -6t-3 -5.5t-4 -4.5t-6 -3t-6.5 -1zM372 7
q-3 0 -5.5 0.5t-4.5 2.5l-4 2q-2 2 -3.5 4.5t-2 5t-0.5 5.5v185q0 9 6 15t14 6q3 0 6.5 -1.5t6 -3t4 -4t3 -6t1.5 -6.5v-185q0 -8 -6 -14t-15 -6zM372 7h-278q-8 0 -14 6t-6 14t6 14t14 6h278q6 0 10.5 -2.5t7.5 -7t3 -10.5q0 -8 -6 -14t-15 -6zM847 -123q-19 0 -35 8
l-166 71q-33 14 -47 48.5t1 68.5q7 16 19.5 28t28.5 18.5t34 6.5t35 -7l165 -71q34 -15 47.5 -49t-1.5 -68q-10 -25 -32.5 -39.5t-48.5 -14.5zM682 86q-15 0 -27 -8t-18 -22q-7 -18 0 -36.5t26 -26.5l165 -71q18 -8 36.5 -0.5t26.5 25.5t0.5 36.5t-25.5 26.5l-165 72
q-3 1 -5 1.5t-4 0.5l-6 2h-4zM750 -60q-5 0 -8 2q-8 3 -11 11t0 15l38 88q4 8 11.5 11t15.5 0t11 -11t0 -16l-39 -88q-5 -12 -18 -12zM871 135q-44 0 -71 35l-109 143q-23 29 -18 65.5t34 59.5q29 21 66 16t59 -33l109 -143q22 -29 17.5 -65.5t-34.5 -59.5q-23 -18 -53 -18z
M761 415q-4 0 -7.5 -0.5t-7.5 -2t-7.5 -3t-6.5 -4.5q-16 -12 -18 -32q-1 -4 -0.5 -9t1.5 -9.5t3 -8.5t5 -8l109 -143q6 -8 14.5 -12.5t17.5 -6t18.5 1t17.5 8.5q16 12 18 32q1 6 0 12t-3 12t-6 11l-109 143q-15 19 -39 19zM783 246q-10 0 -16 8q-5 7 -4 15.5t8 13.5l76 58
q3 2 6 3t6 1t6 -1t6 -3t5 -4q5 -7 3.5 -15.5t-7.5 -13.5l-77 -58q-5 -4 -12 -4z" />
    <glyph glyph-name="uniE61C" unicode="&#xe61c;" 
d="M805 469l-66 68q-2 1 -4.5 2.5t-4.5 1.5h-4h-55v18h21q3 0 5.5 1t4 2.5t4.5 3.5l35 32q6 5 6 17v72q0 4 -1.5 8t-3.5 7l-36 36q-7 8 -14 8h-365q-4 0 -8 -2t-7 -6l-38 -36q-7 -7 -7 -15v-72q0 -8 8 -15l37 -34q2 -2 4.5 -3.5t4.5 -2.5t3 -1h18v-18h-45q-13 0 -17 -4
l-64 -69q-5 -5 -5 -14v-512q0 -3 0.5 -5t1 -3.5t1.5 -3.5t2 -3l65 -64q8 -7 14 -7h429q6 0 14 7l66 63q2 2 3.5 4.5t2.5 5.5t1 6v512q0 4 -1.5 8t-4.5 7zM333 636v36l20 18h310l17 -18v-36l-16 -21h-311zM615 559v-18h-207v18h207zM755 -45l-39 -35h-410l-39 34v491l43 39
h399l46 -39v-490zM631 406q-19 0 -36 -7t-31 -20q-13 13 -30.5 20.5t-35.5 7.5q-38 0 -67 -29.5t-29 -80.5q0 -17 5.5 -32.5t12.5 -25.5t19.5 -20.5t19.5 -15t20 -12.5q10 -5 14 -8q14 -9 25.5 -20.5t16.5 -19.5q10 -16 29 -16t29 15q13 21 43 42q2 1 3.5 2.5t4.5 3.5l4 2
q1 0 5 3q12 7 19 12t19 15t18.5 19.5t11.5 24.5t5 31q0 51 -28.5 80t-66.5 29zM622 245l-8 -5q-2 -1 -5.5 -3.5t-6.5 -4.5q-6 -4 -12 -10l-14 -10l-12 -12q-8 9 -18 17.5t-21 14.5q-3 3 -7 5t-9 5q-27 16 -37.5 27.5t-10.5 26.5q0 17 5.5 29t14 17.5t17.5 5.5q2 0 5 -0.5
t5 -1.5l6 -2q2 -1 4 -3t4.5 -4t4.5 -4t3.5 -5t3.5 -6t3 -6q16 -25 27 -25q2 0 5 1.5t5.5 3.5t5 4.5t4.5 5.5t3.5 5t2.5 4l1 1q14 31 40 31q14 0 25 -12.5t11 -37.5q0 -15 -10 -26t-35 -26z" />
    <glyph glyph-name="uniE61D" unicode="&#xe61d;" 
d="M291 630q0 23 16.5 39.5t39.5 16.5h331q11 0 21.5 -4.5t17.5 -12t11.5 -18t4.5 -21.5v-661q0 -15 -7.5 -27.5t-20 -20t-27.5 -7.5h-331q-23 0 -39.5 16t-16.5 39v661zM708 603v21q0 4 -0.5 7t-1.5 6t-2.5 6t-3.5 5t-4.5 4t-5 3.5t-5.5 3t-6.5 2t-6.5 0.5h-319
q-15 0 -26 -10.5t-11 -26.5v-21h392zM316 -4v-21q0 -4 0.5 -7t1.5 -6t3 -6l4 -4q2 -3 4 -5t5 -3.5t6 -2.5l6 -2q3 -1 6 -1h320q15 0 25.5 11t10.5 26v21h-392zM708 578h-392v-556h392v556z" />
    <glyph glyph-name="uniE61E" unicode="&#xe61e;" 
d="M916 -44h-812q-7 0 -13 2t-11 5.5t-9 8.5t-6 11.5t-2 12.5v617q0 17 12 29t29 12h812q17 0 29 -12t12 -29v-617q0 -17 -12 -28.5t-29 -11.5zM104 625q-5 0 -9 -3.5t-4 -8.5v-617q0 -3 2 -6t5 -4.5t6 -1.5h812q5 0 9 3.5t4 8.5v617q0 5 -4 8.5t-9 3.5h-812zM510 229
l-441 346l17 22l424 -332l424 332l18 -22zM96 -33l-21 20l289 289l21 -20zM663 277l290 -290l-20 -20l-290 290z" />
    <glyph glyph-name="uniE61F" unicode="&#xe61f;" 
d="M626 670q17 14 43 17.5t51 -3t40 -21.5q7 -6 18.5 -17.5t26 -26.5t29 -29t30 -30t25.5 -26q27 -27 30 -69.5t-16 -62.5q-3 -4 -50.5 -62.5t-89 -110t-54.5 -66.5q-14 -18 -36 -26.5t-46.5 -5t-43.5 21.5q-11 11 -18.5 18t-9.5 9l-2 2q-232 -231 -249 -248
q-10 -11 -19 -16t-23.5 -7t-30.5 8q-51 25 -107 53q-16 8 -18.5 24.5t9.5 28.5l297 298l-27 26q-10 10 -16 24t-7 28.5t1.5 28.5t9.5 26.5t17 20.5q23 17 125.5 101.5t110.5 91.5zM407 457q-16 -13 -19 -39.5t12 -44.5q10 -11 17.5 -19t13.5 -13.5t8 -7.5q5 -6 4.5 -11
t-5.5 -10l-298 -298l-2 -2l-1 -1l-2 -2l-1 -1l-1 -1q-7 -7 1 -11q3 -1 19 -9t31 -15l14 -8l22 22v11q0 5 1 7.5t4 5.5l5 5q-11 14 -18 23q-4 4 -4 8t1.5 6.5t3.5 5.5l16 15q4 4 12 5l28 3q1 1 2.5 2t5 5t6.5 7l5 5l4 4q3 3 11 4l28 3q0 1 1 2t4.5 4t6.5 6t6.5 7t6.5 6.5t5 5
t3 3.5q5 5 12 6q2 1 5 1.5t5.5 1.5t5 1.5t3.5 0.5l2 1l6 6q-1 2 -2 5t-4 10t-5 11q-4 11 4 19l15 15q1 1 2.5 2t3.5 1.5t4 0.5h5q1 0 3.5 -0.5t5.5 -1t7 -0.5t8 -1h6q4 -1 7 -1t5.5 -0.5t3.5 -0.5h2l43 43q7 6 16 -1q2 -2 3 -4.5t1 -4.5t-0.5 -4t-1.5 -3v-2l-11 -10l-18 -19
l-15 -15q-7 -7 -16 -6q-4 0 -16 1.5t-22 2.5l-11 1l-8 -8q1 -2 2 -5.5t4 -10.5t5 -10q4 -10 -4 -18q-3 -2 -5 -3l-2 -4l-4 -3q-5 -5 -12 -7l-20 -6l-8 -8l-13 -13l-12 -12q-7 -6 -15 -7l-27 -3q-17 -18 -21 -22q-2 -1 -3 -2.5t-3 -2.5h-4q-2 -1 -4 -1t-6 -1h-6q-4 -1 -8 -1
h-5l-2 -1l-7 -6q14 -17 18 -23q9 -10 1 -18l-11 -10v-3v-4v-6q-1 -3 -3 -7t-4 -6l-2 -2l-14 -15l5 -2q3 -2 9.5 -5.5t10.5 -5.5q7 -4 17 -1.5t15 8.5q4 4 264 263q9 8 18 0l6 -7l14 -14q10 -9 19 -17q10 -10 26.5 -13t34 3.5t30.5 21.5l189 232q14 16 13 47t-20 51
q-22 23 -65.5 67t-60 59t-36.5 21t-39.5 2t-35.5 -16q-30 -25 -230 -189zM799 431q-13 -12 -30.5 -12.5t-29.5 11.5l-79 76q-12 12 -12.5 29.5t11.5 29.5q12 13 29.5 13.5t30.5 -11.5l78 -76q13 -12 13.5 -29.5t-11.5 -30.5zM781 448q2 2 3.5 5t1.5 5.5t-0.5 5.5t-1.5 5.5
t-3 4.5l-79 75q-5 5 -12.5 5t-13.5 -5q-2 -3 -3.5 -6.5t-1.5 -7t1.5 -6.5t4.5 -6l79 -75q5 -6 12.5 -5.5t12.5 5.5z" />
    <glyph glyph-name="uniE620" unicode="&#xe620;" 
d="M396 125q-11 -6 -30.5 -15t-71 -27.5t-94.5 -24.5q-142 -38 -159 -137l-1 -85l621 -1l12 -7q7 -4 11 -12h38l-6 11q-3 7 -18 20.5t-33 18.5h-589v55q1 1 2 4t5 11.5t10 16.5t17 19t24.5 21t34 20t44.5 17q48 10 113.5 33t94.5 45v117l-104 131q-1 1 -2.5 3t-5.5 7
t-7.5 10t-7 12.5t-5.5 14.5t-2.5 15t2 15t9 14t17.5 12q-1 3 -3.5 9.5t-9 21t-13.5 24.5v8v10q0 5 0.5 12t1 13.5t0.5 13t0.5 12.5t1 10t0.5 7v2q1 4 3 10t8.5 22.5t14.5 29.5t21 24.5t28 14.5v67q5 1 13.5 2t34.5 2t51.5 -1.5t60 -12.5t63.5 -27q1 0 5 -1t11.5 -3.5
t16.5 -6.5t19.5 -9t21 -11t20 -14.5t17 -17.5t13 -20t6.5 -23l1 -165q2 -1 5.5 -3.5t9 -12t6 -21t-9.5 -31t-32 -41.5q-1 -1 -8.5 -7t-12.5 -11t-14.5 -14t-18 -18.5t-17.5 -21.5t-17.5 -26.5t-15.5 -30.5v-115q1 -2 3 -4t13.5 -9.5t29.5 -15.5t55.5 -18.5t87.5 -20.5
q11 -3 26 -8.5t39 -16.5t43.5 -24t35.5 -32t20 -38l-1 -60h-177l-1 -25h205v96q-1 3 -3.5 9t-15.5 23t-30.5 33t-51.5 34.5t-77 32.5q-147 30 -176 56v98q1 3 3 7t9.5 17t17 26t25.5 31t35 34l4 5q5 5 10.5 11t12.5 16t13 19.5t10 21.5t4.5 22.5t-4 22t-13.5 21.5v160
q0 3 -0.5 8.5t-6.5 21.5t-17.5 30.5t-37.5 31.5t-63 28q-1 0 -14.5 6t-26.5 12l-12 6q-16 24 -230 24v-82q-1 -1 -3.5 -2.5t-10 -7t-14 -11.5t-15 -16t-15 -21t-11.5 -26.5t-6 -32.5q-1 -2 -1.5 -8.5t-0.5 -14.5t-0.5 -18.5t-1 -18.5t-0.5 -17v-12v-5q19 -32 19 -44
q-1 -1 -3 -2t-7 -6t-8.5 -11.5t-4.5 -17t2 -23t13.5 -30.5t27.5 -38q5 -5 46.5 -59t48.5 -60v-92z" />
    <glyph glyph-name="uniE621" unicode="&#xe621;" 
d="M960 564l-60 61l-530 -530l-246 246l-60 -60l298 -297l8 -9l9 9z" />
    <glyph glyph-name="uniE622" unicode="&#xe622;" 
d="M512 695q110 0 204 -54.5t148.5 -148.5t54.5 -204t-54.5 -204t-148.5 -148.5t-204 -54.5t-204 54.5t-148.5 148.5t-54.5 204q0 66 20.5 128.5t58 112.5t87.5 87.5t112.5 58t128.5 20.5zM512 735q-91 0 -174 -35.5t-142.5 -95t-95 -142.5t-35.5 -174t35.5 -174t95 -142.5
t142.5 -95t174 -35.5t174 35.5t142.5 95t95 142.5t35.5 174t-35.5 174t-95 142.5t-142.5 95t-174 35.5zM720 426h-416q-9 0 -14.5 5.5t-5.5 14t5.5 14.5t14.5 6h416q9 0 14.5 -6t5.5 -14.5t-5.5 -14t-14.5 -5.5zM720 268h-416q-9 0 -14.5 6t-5.5 14t5.5 14t14.5 6h416
q9 0 14.5 -6t5.5 -14t-5.5 -14t-14.5 -6zM720 110h-416q-6 0 -10.5 3t-7 7.5t-2.5 9.5q0 9 5.5 14.5t14.5 5.5h416q9 0 14.5 -5.5t5.5 -14t-5.5 -14.5t-14.5 -6z" />
    <glyph glyph-name="uniE623" unicode="&#xe623;" 
d="M511 748q-98 0 -185 -40t-147.5 -107t-91.5 -159.5t-20 -191.5q17 -154 127.5 -264.5t264.5 -127.5q99 -11 191.5 20t159.5 91.5t107 147.5t40 184q0 91 -35 174t-95 142.5t-143 95t-173 35.5v0zM511 -115q-92 0 -175 38.5t-139.5 103t-84 153t-14.5 182.5
q19 137 117 235t235 117q94 13 182.5 -14.5t153 -84t103.5 -139.5t39 -175q0 -113 -56 -209t-152 -151.5t-209 -55.5v0zM682 493l-171 -171l-172 171l-1 1q-10 6 -18 -2.5t-1 -18.5l171 -172l-171 -171q-5 -7 -2.5 -13.5t8.5 -8.5t13 1l1 1l172 171l171 -171q10 -6 18 2
t3 17l-1 1l-171 171l171 172h1q3 5 2 10.5t-4.5 8.5t-8.5 4t-10 -3v0zM682 493z" />
    <glyph glyph-name="uniE624" unicode="&#xe624;" 
d="M1007 270l-495 463l-495 -462q-7 -7 -7.5 -17t6.5 -17t16.5 -7.5t17.5 6.5l462 431l462 -433q4 -3 8 -4.5t9 -1.5q10 0 17 8q7 7 6.5 17t-7.5 17zM856 260q-10 0 -17 -7t-7 -17v-368h-192v256h-256v-256h-192v368q0 10 -7 17t-17 7t-17 -7t-7 -17v-416h288v256h160v-256
h288v416q0 10 -7 17t-17 7zM688 604h144v-128q0 -10 7 -17t17 -7t17 7t7 17v176h-192q-10 0 -17 -7t-7 -17t7 -17t17 -7z" />
    <glyph glyph-name="uniE625" unicode="&#xe625;" 
d="M120 -114q-3 0 -6 1.5t-5 3.5q-5 6 -4 13q12 67 45 127q33 59 82 104.5t111 72.5q28 13 57.5 21.5t60.5 12.5v1q-74 17 -123 75q-55 64 -55 148q0 31 8 60t23 54.5t37 47.5q67 67 161.5 67t161.5 -67t67 -162q0 -27 -6 -53.5t-18.5 -50.5t-30.5 -45q-49 -58 -123 -74v-1
q134 -17 233 -110t123 -227q1 -7 -3 -12q-1 -2 -3 -3.5t-4.5 -2t-4.5 -0.5l-784 -1v0zM512 664q-53 0 -99 -26.5t-72.5 -72t-26.5 -99.5q0 -16 2.5 -31.5t7.5 -30t12 -28.5t15.5 -26t19 -23t23 -20t26 -16t28.5 -12.5t31 -7.5q13 -2 13 -16l-1 -28q0 -1 -0.5 -3t-1.5 -4
l-2 -2q-1 -2 -2.5 -3t-3.5 -1.5t-4 -1.5q-123 -11 -217 -93t-121 -202l746 1q-27 120 -121 202t-218 93q-4 0 -7 2t-5 5.5t-2 7.5v27q0 13 13 16q72 11 119 66.5t47 128.5q0 54 -27 99.5t-72.5 72t-99.5 26.5z" />
    <glyph glyph-name="uniE626" unicode="&#xe626;" 
d="M512 735q-61 0 -119 -16t-107 -45t-90 -70t-70 -90t-45 -107t-16 -119q0 -91 35.5 -173.5t95.5 -142.5t142.5 -95.5t173.5 -35.5t173.5 35.5t142.5 95.5t95.5 142.5t35.5 173.5t-35.5 173.5t-95.5 142.5t-142.5 95.5t-173.5 35.5zM812 -12q-15 -15 -30.5 -28t-32.5 -24
t-35 -21t-37 -18q-79 -33 -165 -33t-165 33q-76 32 -135 91t-91 135q-33 79 -33 165t33 165q32 76 91 135q29 29 63 52t72 39q79 33 165 33q21 0 42.5 -2t42 -6t41 -10.5t39.5 -14.5q76 -32 135 -91q29 -29 52 -63t39 -72q33 -79 33 -165t-33 -165q-32 -76 -91 -135z
M748 599l-1 -1l-2 -3q-10 -12 -22.5 -27.5t-22.5 -28t-22.5 -27.5t-22.5 -27.5t-22 -27t-22.5 -27.5t-22.5 -27.5t-22.5 -28t-22 -27.5t-22.5 -28q-10 -11 -22 -10q-6 1 -8 5q-62 82 -211 280q0 1 -4 5q-4 -3 -7.5 -5.5t-7.5 -5.5q150 -200 209 -279h-157v-18h6h159h4
q2 0 3.5 -0.5t4.5 -0.5h4v-89h-182v-12q0 -6 4 -6h3h168h7v-272h19v272h7h162h6h4q1 0 1 2t0.5 3.5t0.5 5.5q0 7 -7 7h-168h-6v90h180v19h-156q210 257 226 277q-3 3 -15 12z" />
    <glyph glyph-name="uniE627" unicode="&#xe627;" 
d="M877 -162h-225q-3 0 -5.5 1t-5 2.5t-4 4t-2.5 5t-1 5.5v263h-244v-263q0 -3 -1.5 -6.5t-4 -6t-6 -4t-6.5 -1.5h-225q-7 0 -12.5 5.5t-5.5 12.5v407q0 7 5.5 12.5t13 5.5t12.5 -5.5t5 -12.5v-388h188v262q0 8 5.5 13t13.5 5h280q8 0 13 -5t5 -13v-262h188v388
q0 7 5.5 12.5t13 5.5t13 -5.5t5.5 -12.5v-407q0 -7 -5.5 -12.5t-12.5 -5.5zM845 294q-33 0 -62 16.5t-47 45.5h-4q-18 -29 -47 -45.5t-62 -16.5q-17 0 -33 4.5t-29.5 12t-25.5 19.5t-21 26h-4q-18 -29 -47 -45.5t-62 -16.5q-22 0 -42.5 7.5t-37.5 21.5t-29 33h-4
q-18 -29 -47 -45.5t-62 -16.5q-37 0 -67.5 19.5t-47.5 52.5q-14 29 -14 57q0 24 9 48l4 7l144 274q1 2 2.5 3.5t3 2.5t3.5 2t4 1.5t4 0.5h576q11 0 16 -10l148 -280q10 -25 10 -49q0 -28 -14 -57q-17 -33 -48 -52.5t-67 -19.5zM721 392h26q11 0 16 -10q8 -16 20.5 -27.5
t28.5 -18t33 -6.5t33 6.5t28.5 18t20.5 27.5q6 11 8.5 21t2.5 20q0 9 -2 17.5t-5 16.5l-2 5l-140 263h-554l-143 -269q-6 -16 -6 -33q0 -20 11 -41q12 -24 34 -38t48 -14q17 0 32.5 6.5t28.5 18t21 27.5q2 5 6.5 7.5t9.5 2.5h26q11 0 16 -10q8 -16 20.5 -27.5t28.5 -18
t33 -6.5q26 0 48 14t34 38q5 10 16 10h26q11 0 16 -10q12 -24 34 -38t48 -14t48 14t34 38q5 10 16 10zM512 409z" />
    <glyph glyph-name="uniE628" unicode="&#xe628;" 
d="M512 -139q-15 0 -25 10l-357 344q-5 5 -15 15.5t-32 37.5t-39 55.5t-30.5 69t-13.5 78.5q0 126 72.5 197t200.5 71q36 0 72.5 -12.5t68.5 -33t54.5 -39t43.5 -39.5q21 21 43.5 39.5t54.5 39t68.5 33t72.5 12.5q128 0 200.5 -71t72.5 -197t-131 -257l-356 -343
q-10 -10 -25 -10z" />
    <glyph glyph-name="uniE629" unicode="&#xe629;" horiz-adv-x="1028" 
d="M330 682q69 0 170 -99l43 -43l43 43q30 31 60.5 53.5t58 34.5t49.5 12q84 0 148 -65q65 -65 65 -157t-65 -157q-5 -5 -340 -366q-8 -8 -19.5 -8t-19.5 7q-308 343 -339.5 374.5t-48.5 72t-17 84.5q0 92 66 157q57 57 146 57zM330 743q-114 0 -189 -75q-83 -83 -83 -200
t83 -200q9 -9 47 -50.5t86 -94.5t95 -105t79 -88l31 -35q26 -26 63 -26t64 26q335 363 339 366q41 41 62 94t21 106.5t-21 106t-62 93.5q-42 42 -89 62t-102 20q-50 0 -105.5 -33t-105.5 -84q-25 24 -49.5 44t-52 37t-56 26.5t-55.5 9.5z" />
    <glyph glyph-name="uniE62A" unicode="&#xe62a;" 
d="M508 199q-17 0 -28 11l-159 159q-5 5 -5 12.5t5 12.5t12 5t12 -5l159 -159q4 -4 7 0l159 159q3 3 7.5 4t9 0t8 -4.5t4.5 -7.5t0 -8.5t-4 -8.5l-159 -159q-3 -3 -6.5 -5t-7 -3.5t-7 -2t-7.5 -0.5zM508 199zM896 299q0 -105 -51.5 -193t-140 -139.5t-192.5 -51.5
t-192.5 51.5t-140 139.5t-51.5 192.5t51.5 193t140 140t192.5 51.5q78 0 149 -30.5t122.5 -82t82 -122.5t30.5 -149zM512 651q-96 0 -177 -47t-128 -128.5t-47 -177t47 -176.5t128 -128t177 -47q72 0 137 28t112 75t75 112t28 137q0 95 -47 176.5t-128 128.5t-177 47z" />
    <glyph glyph-name="uniE62B" unicode="&#xe62b;" 
d="M542 633v-34l56 -12v46h-56zM426 633v-46l45 16v30h-45zM477 748v-111h65v56h56v55h-121zM127 388v-115h84v58h-36v57h-48zM66 273h57v-49h-57v49zM429 -25h49v-50h-49v50zM690 19l-28 -36h49zM605 -33h51v-62h115v-50h-293v49h125zM838 206l-43 -81l43 -24v105zM838 88
h121v-121zM843 388h56v-50h-56v50zM843 269h63v69h53v-184h-48v70h-68v45zM766 649h94v-96h-94v96zM719 540v159h182v-190h-150l44 -60h164v299h-304v-169zM169 649h92v-91h-92v91zM302 523v170h-183v-188h176l-42 -56h-187v299h305v-190zM169 54h98v-98h-98v98zM306 66
v-155h-183v190h156l-33 58h-180v-304h297v159zM521 524q3 1 8.5 0.5t21.5 -2t31.5 -4.5t36.5 -10.5t39.5 -18.5t38 -28.5t33.5 -39.5t24 -54.5t12 -70.5v-12q0 -9 -4 -33.5t-12 -47t-26 -50t-43 -48t-66.5 -35t-93.5 -16.5q-5 1 -13 1.5t-32 6t-45.5 14.5t-47.5 27.5
t-44.5 43t-30.5 63.5t-11 86h-62l5 -49q24 -146 137 -208q62 -34 145 -38h17q11 0 41.5 5.5t58 15t62 31.5t59 52t42 80t18.5 111q1 6 0.5 16t-5.5 38.5t-15 54.5t-32 58t-52.5 55.5t-81.5 40.5t-115 18zM521 524h-11q-8 0 -29.5 -4.5t-41.5 -12t-45.5 -25t-44.5 -40.5
t-33.5 -61t-18.5 -85h-62q1 6 2 15.5t7 38t16.5 54t32 57.5t50.5 55.5t74.5 40.5t101.5 20zM703 54l182 -183q3 -2 8 -5.5t20 -4.5t29 10l3 3q2 2 5.5 8t5 12.5t-1.5 17t-12 21.5l-181 176q-40 -43 -58 -55z" />
    <glyph glyph-name="uniE62C" unicode="&#xe62c;" 
d="M960 398h-343l-105 318l-105 -318h-343l280 -196l-109 -318l277 197l277 -197l-110 318zM725 -30l-213 152l-213 -152l85 245l-216 149h262l82 247l82 -247h262l-216 -149z" />
    <glyph glyph-name="uniE62D" unicode="&#xe62d;" 
d="M960 412h-343l-105 336l-105 -336h-343l278 -208l-110 -352l280 224l280 -224l-110 352z" />
    <glyph glyph-name="uniE62E" unicode="&#xe62e;" 
d="M794 710h-180v25q0 32 -22.5 54.5t-53.5 22.5h-103q-21 0 -38.5 -10.5t-28 -28t-10.5 -38.5v-25h-179q-15 0 -29.5 -6.5t-24.5 -16.5t-16.5 -24.5t-6.5 -29.5v-51q0 -17 7 -31.5t18.5 -25.5t26.5 -16v-644q0 -32 22.5 -54.5t53.5 -22.5h512q32 0 54.5 22.5t22.5 54.5v644
q23 8 37 28t14 45v51q0 15 -6 29.5t-16 24.5t-24.5 16.5t-29.5 6.5zM410 735q0 11 7.5 18.5t17.5 7.5h103q10 0 17.5 -7.5t7.5 -18.5v-25h-153v25zM742 -161h-512q-3 0 -6.5 1t-6 2.5t-5 4t-4 5.5t-2.5 6t-1 7v640h563v-640q0 -4 -1.5 -8t-3.5 -7t-5.5 -5.5t-7 -4t-8.5 -1.5
zM819 582q0 -6 -2 -10.5t-5.5 -8t-8 -5.5t-9.5 -2h-615q-4 0 -8 1.5t-7 3.5t-5.5 5.5t-3.5 7t-1 8.5v51q0 10 7.5 17.5t17.5 7.5h615q4 0 8 -1t7 -3.5t5.5 -5.5t3.5 -7t1 -8v-51zM640 454q-11 0 -18.5 -7.5t-7.5 -18.5v-512q0 -11 7.5 -18.5t18.5 -7.5t18.5 7.5t7.5 18.5
v512q0 11 -7.5 18.5t-18.5 7.5zM486.5 454q-10.5 0 -18 -7.5t-7.5 -18.5v-512q0 -11 7.5 -18.5t18 -7.5t18 7.5t7.5 18.5v512q0 11 -7.5 18.5t-18 7.5zM333 454q-11 0 -18.5 -7.5t-7.5 -18.5v-512q0 -5 2 -10t5.5 -8.5t8.5 -5.5t10 -2t9.5 2t8 5.5t5.5 8.5t2 10v512
q0 7 -3 13t-9 9.5t-13 3.5z" />
    <glyph glyph-name="uniE62F" unicode="&#xe62f;" 
d="M332 300l391 391q8 8 8 18.5t-7.5 18t-18.5 7.5t-18 -8l-407 -407q-9 -8 -8 -20q-1 -12 8 -20l407 -407q4 -4 8.5 -6t9.5 -2q11 0 18.5 7.5t7.5 18t-8 18.5z" />
    <glyph glyph-name="uniE630" unicode="&#xe630;" 
d="M513 -141q-90 0 -173 35q-80 34 -141 95q-31 31 -55 66.5t-41 75.5q-35 83 -35 173.5t35 172.5q34 80 95.5 141.5t141.5 95.5q83 35 173.5 35t173.5 -35q80 -34 141.5 -95.5t95.5 -141.5q35 -82 35 -173q0 -130 -70 -239l-1 -1t-3 -2.5t-4.5 -2.5t-6.5 -1t-7 2
q-4 1 -5.5 4t-1.5 6t0.5 6t0.5 5l1 1q64 102 64 222q0 112 -55 207t-150.5 150.5t-207.5 55.5q-159 0 -278 -108q-115 -105 -132 -258q-3 -24 -3 -47q0 -112 55.5 -207t150.5 -150.5t207 -55.5q130 0 236 74q2 1 4.5 2t8.5 0.5t10 -5.5q8 -11 -5 -24q-28 -19 -58 -34
t-62 -25t-65.5 -15t-68.5 -5zM576 465q-1 -1 -2.5 -3t-6.5 -4.5t-11 -1.5t-9 5.5t-2 8.5v4l17 62q1 1 2.5 3.5t7 5t11.5 0.5t8.5 -6.5t1.5 -7.5v-4zM478 79q-10 0 -16 7q-11 11 -4 30q58 207 66 231q0 1 1 2l-95 -23q-1 0 -2.5 -0.5t-4.5 -0.5t-6 1t-5.5 3.5t-3.5 6.5
q-2 6 1.5 11.5t8.5 7.5l4 2l112 28q3 1 6.5 1t6.5 -1t6 -3q12 -11 1 -45q-7 -22 -63 -222l65 20h4q3 0 7.5 -2.5t6.5 -7.5q1 -4 0.5 -7t-2 -5.5t-3.5 -4.5l-3 -3l-1 -1q-6 -1 -15.5 -4t-29.5 -9t-31 -10q-3 -1 -6 -1.5t-5 -0.5z" />
    <glyph glyph-name="uniE631" unicode="&#xe631;" 
d="M744 232q-67 0 -114 -47.5t-47 -114.5q0 -44 21.5 -81.5t58.5 -59t81 -21.5q67 0 114.5 47.5t47.5 114.5q0 26 -8 51t-23 44.5t-35 34.5t-44.5 23.5t-51.5 8.5zM814 41h-65h-18h-15v107h33v-72h65v-35zM289 462h294v-27h-294v27zM289 371h294v-27h-294v27zM289 280h294
v-27h-294v27zM289 190h294v-27h-294v27zM198 -48q-23 0 -39 15.5t-16 36.5v614q0 8 2.5 16t8 14.5t12 11.5t15 7.5t17.5 2.5h409v-183h179v-210q4 0 8.5 -1t7.5 -2t9 -2v215v21l-185 184h-19h-409q-33 0 -56.5 -22t-23.5 -52v-613q0 -31 23.5 -53t56.5 -22h384
q-10 11 -18 22h-366z" />
    <glyph glyph-name="uniE632" unicode="&#xe632;" horiz-adv-x="1025" 
d="M454 549q2 -2 3.5 -4.5t2.5 -5.5t1 -6t-0.5 -6t-1.5 -5.5t-2.5 -5.5t-4.5 -5l-150 -151q-5 -5 -12 -7t-14 -0.5t-12 6.5q-2 2 -3.5 4.5t-2.5 5t-1 5.5t0.5 6t1.5 6t3 5.5t4 4.5l150 151q8 8 19 8.5t19 -6.5zM958 551q-5 9 -15 12t-19.5 -2.5t-12.5 -15.5t3 -19v0
q45 -82 55 -174t-13.5 -176t-80 -157.5t-138.5 -119.5t-174 -56t-176 13.5t-158 80t-119.5 138.5t-55.5 174.5t13.5 176.5t80 157.5t138 119.5t173.5 55.5t178 -15.5t157 -80l1 1q3 -3 7 -4t8 -1t7.5 1t7 3t6.5 6q4 5 5 12t-2 13t-8 10v1h-1q-121 93 -272 105.5t-292 -64.5
q-91 -51 -153.5 -132.5t-88.5 -175t-15 -196t62 -193t132.5 -153.5t175 -89t196 -15t193.5 62t153.5 132.5t89 175t15 196t-62.5 193.5zM768 377q0 -5 -2 -10t-5.5 -8.5t-8 -5.5t-10.5 -2h-460q-5 0 -10 2t-8.5 5.5t-5.5 8.5t-2 10q0 7 3.5 12.5t9.5 9t13 3.5h460
q11 0 18.5 -7.5t7.5 -17.5zM570 51q-7 7 -6.5 18.5t8.5 19.5l151 151q8 8 19 8.5t19 -7.5q7 -7 6.5 -18t-8.5 -20l-151 -150q-8 -9 -19 -9.5t-19 7.5zM256 223q0 11 7.5 18.5t18.5 7.5h460q11 0 18.5 -7.5t7.5 -18.5q0 -10 -7.5 -17.5t-18.5 -7.5h-460q-4 0 -8 1t-7.5 3.5
t-5.5 5.5t-3.5 7t-1.5 8z" />
    <glyph glyph-name="uniE633" unicode="&#xe633;" 
d="M665 183h63v-64h-63v64zM880 393h-29l29 26l-235 251l-45 -43l-97 61l-186 -295h-173q-17 0 -29 -12t-12 -28v-436q0 -16 12 -28t29 -12h736q11 0 20.5 5.5t14.5 14.5t5 20v436q0 16 -11.5 28t-28.5 12zM435 393l208 195l155 -166l-32 -29h-331zM439 476l82 132l35 -22z
M862 334v-81h-227q-14 0 -23.5 -9.5t-9.5 -22.5v-137q0 -13 9.5 -22.5t23.5 -9.5h227v-116h-700v398h165v8h3v-8h532zM862 195v-85h-202v85h202z" />
    <glyph glyph-name="uniE634" unicode="&#xe634;" 
d="M903 153h-426q-7 0 -13 1.5t-11 4t-10 6.5t-8.5 8.5t-6.5 10t-4.5 11.5t-1.5 12v431q0 22 16 38t39 16h426q23 0 39 -16t16 -38v-431q0 -22 -16 -38t-39 -16zM477 640q-3 0 -3 -2v-431q0 -1 1 -1.5t2 -0.5h426q2 1 3 2v431q0 2 -3 2h-426zM313 393v-162h-73v-44h73h44v44
v162h-44zM660 52q-30 0 -51.5 -21.5t-21.5 -52t21.5 -52t51.5 -21.5t51.5 21.5t21.5 52t-21.5 52t-51.5 21.5zM263 52q-31 0 -52 -21.5t-21 -52t21 -52t52 -21.5q19 0 36 10t26.5 27t9.5 37t-9.5 36.5t-26.5 26.5t-36 10zM806 153v-135q0 -3 -3 -3h-685q-3 0 -3 3v184
l214 330q4 7 10 17q1 1 1 2h82v51h-86q-26 0 -42 -27q-4 -8 -7 -12l-1 -1l-223 -345v-199q0 -23 16 -39t39 -16h685q22 0 38.5 16t16.5 39v135h-52z" />
    <glyph glyph-name="uniE635" unicode="&#xe635;" 
d="M723 535h-429q-18 0 -30.5 -10.5t-12.5 -25t12.5 -25t30.5 -10.5h429q18 0 30.5 10.5t12.5 25t-12.5 25t-30.5 10.5zM582 277h-287q-5 0 -10 -1t-9.5 -2.5t-8 -4t-7 -5.5t-5.5 -6.5t-3 -7.5t-1 -8q0 -15 13 -25.5t31 -10.5h287q18 0 31 10.5t13 25t-13 25t-31 10.5z
M571 -95h-402q-4 0 -7 2.5t-3 5.5v774q0 9 10 9h679q4 0 6.5 -2.5t2.5 -6.5v-539h51v539q0 25 -17.5 42.5t-42.5 17.5h-679q-13 0 -24 -4.5t-19 -12.5t-13 -19.5t-5 -23.5v-774q0 -24 18 -42t43 -18h402v52zM815 -18l74 71q6 7 8.5 15.5t0 17.5t-8.5 15q-11 10 -25 10
t-25 -10l-73 -72l-74 72q-10 10 -24.5 10t-24.5 -10t-10 -24t10 -24l74 -71l-74 -72q-10 -10 -10 -24t10 -23.5t24.5 -9.5t24.5 9l74 72l73 -72q11 -9 25 -9t24.5 9.5t10.5 23.5t-10 24z" />
    <glyph glyph-name="uniE636" unicode="&#xe636;" 
d="M761 285h-228v199q0 4 -1.5 8.5t-4.5 7.5t-7.5 5t-8.5 2t-7.5 -1.5t-6.5 -3.5t-5 -5t-3 -6.5t-1 -6.5v-244h273q9 0 15.5 6.5t6.5 16t-6.5 16t-15.5 6.5zM512 743q-72 0 -139.5 -22.5t-122 -63.5t-95.5 -95.5t-63.5 -122t-22.5 -139.5q0 -90 35 -172t94.5 -141.5
t141.5 -94.5t172 -35t172 35t141.5 94.5t94.5 141.5t35 172t-35 172t-94.5 141.5t-141.5 94.5t-172 35zM793 19q-18 -18 -38 -34t-42 -28.5t-46 -22.5q-37 -16 -76 -24t-79 -8q-81 0 -154 32q-36 15 -67.5 36t-59 48.5t-49 59.5t-36.5 67q-31 74 -31 155q0 40 7.5 79
t23.5 76q30 71 85 126t127 85q73 31 154 31t155 -31q35 -15 67 -36.5t59 -48.5q18 -18 34 -38.5t28.5 -42.5t22.5 -45q32 -74 32 -155t-32 -155q-30 -71 -85 -126z" />
    <glyph glyph-name="uniE637" unicode="&#xe637;" 
d="M728 669h55q28 0 48 -20t20 -48v-632q0 -28 -20 -48t-48 -20h-542q-28 0 -48 20t-20 48v632q0 14 5.5 26.5t14.5 21.5t21.5 14.5t26.5 5.5h85q9 0 15.5 6.5t6.5 16t-6.5 16t-15.5 6.5h-85q-47 0 -80 -33t-33 -80v-632q0 -47 33 -80t80 -33h542q47 0 80 33t33 80v632
q0 47 -33 80t-80 33h-55q-9 0 -15.5 -6.5t-6.5 -16t6.5 -16t15.5 -6.5zM316 451h422v-46h-422v46zM407 737h241v-91h-241v91zM316 300h422v-45h-422v45zM316 149h422v-45h-422v45z" />
  </font>
</defs>
</svg>
