<?xml version="1.0" encoding="utf-8"?>
<!-- Generator: Adobe Illustrator 17.1.0, SVG Export Plug-In . SVG Version: 6.00 Build 0)  -->
<!DOCTYPE svg PUBLIC "-//W3C//DTD SVG 1.1//EN" "http://www.w3.org/Graphics/SVG/1.1/DTD/svg11.dtd">
<svg version="1.1" id="Layer_1" xmlns="http://www.w3.org/2000/svg" xmlns:xlink="http://www.w3.org/1999/xlink" x="0px" y="0px"
	 viewBox="0 0 70.1 49.6" enable-background="new 0 0 70.1 49.6" xml:space="preserve">
<g>
</g>
<g>
	<path fill="#FF6600" d="M16.2,27c0,9.7-1.6,14.1-3.7,16.3c-1.9,2-3.5,2.9-6,3.7c-1.3,0.4-2.4,0.5-3.5-0.6c-1.7-1.9-3-8.4-3-13.9
		c0-2.1,0.6-3,1.3-3.7c0.9-0.9,2.1-1.4,3.2-1.7c0.9-0.3,1.4,0.1,1.4,1.2C5.7,36.6,7,44.1,8.5,43.6c1.7-0.6,2.4-7.4,2.1-18.4
		c-0.2-6.4-1-13.9-1.5-18c-0.1-1,0.2-1.6,0.8-2c0.7-0.5,2.2-1.2,3.2-1.5c0.6-0.2,1.7-0.5,1.9,1.1C15.8,9.4,16.2,18,16.2,27z"/>
	<path fill="#FF6600" d="M22.2,38c-0.2,2.2-0.4,4.4-0.6,6.3c-0.1,1.9-0.8,4-2.4,5c-1.8,1-1.9-0.3-1.8-1.2c1.4-9.6,4.5-30.5,6-41.9
		c0.2-1.7,0.1-2.8,1.7-3.5c1.2-0.5,2.1-0.9,3.5-1.4c1-0.3,1.8,0.2,1.9,1.3c1.1,11.4,2.6,28.6,4,39.6c0.1,1.2-0.1,2.2-1.1,3
		c-0.9,0.7-1.6,1.2-2.7,1.7c-0.8,0.4-1.5,0.3-1.7-1.2c-0.3-3.1-0.6-6.3-0.9-9.4C26.1,36.8,24.2,37.4,22.2,38z M27.9,32.8
		c-0.7-7.5-1.3-15-1.9-21.1c-1.2,6.8-2.4,15.2-3.3,22.7C24.3,33.9,26.1,33.3,27.9,32.8z"/>
	<path fill="#FF6600" d="M51.7,40.3c-2.4,3.2-6.1,5.3-8.6,5.8c-1.2,0.2-2.8,0.5-3.9-0.6c-3.1-3.2-3.6-13.2-3.5-20.3
		c0.1-5,0.5-12.5,2.1-17.8C38.6,4.7,40,3,43.5,1.9c3.4-1.2,5.4-1,6.3,1.6c1.6,4.2,2.2,12,1.6,21.3c-0.1,1.6-0.7,2.2-1.4,2.5
		c-0.7,0.5-1.5,0.7-2.3,1.1c-1.2,0.5-2,0.1-1.9-1.4c0.5-11.1-0.2-22.1-1.4-21.6c-1.3,0.5-2.4,8.9-2.6,18.9c-0.1,10,1,18.1,2.8,18.1
		c1.1,0,1.8-1.4,2.5-2.2c0.9-1.1,2.2-2,3.6-2.1C52.2,38.2,52.6,39,51.7,40.3z"/>
	<path fill="#FF6600" d="M59.8,43.4c0.1,1.4-0.4,1.9-1,2.4c-0.8,0.5-1.4,0.9-2.7,1.4c-0.9,0.4-1.6,0.1-1.6-1
		c-0.4-11.2-0.8-25.9-0.4-38c0.1-1.2,0.1-2,1.2-2.7s1.9-1.2,2.7-1.5C59.1,3.5,60,3.7,60,5.1c-0.3,7.1-0.5,14.3-0.5,21.3
		c2.7-8.9,6.2-20.3,7.8-25.1c0.2-0.9,0.9-2.1,2.1-0.3c1.1,1.7,0.6,3.7,0,5.5c-2.4,6.3-4.6,13-7.3,21.4c2.5,4.4,5,8.3,7.2,12
		c0.9,1.2,0.8,2.3,0.4,3.1c-0.4,0.8-0.8,1.4-1.7,2s-1.7,0.6-2.2-0.3c-1.9-3.3-4-7.1-6.3-10.9C59.6,37.2,59.7,40.4,59.8,43.4z"/>
</g>
</svg>
